<mxfile host="Electron" modified="2024-03-29T08:38:01.823Z" agent="Mozilla/5.0 (Windows NT 10.0; Win64; x64) AppleWebKit/537.36 (KHTML, like Gecko) draw.io/24.1.0 Chrome/120.0.6099.109 Electron/28.1.0 Safari/537.36" etag="aW9nA5yzEQufH-bolkL_" version="24.1.0" type="device">
  <diagram name="Page-1" id="gPlWKpvVQ3MzhAnbhxmM">
    <mxGraphModel dx="934" dy="611" grid="0" gridSize="10" guides="1" tooltips="1" connect="1" arrows="1" fold="1" page="1" pageScale="1" pageWidth="850" pageHeight="1100" math="0" shadow="0">
      <root>
        <mxCell id="0" />
        <mxCell id="1" parent="0" />
        <mxCell id="YlIWQOpzAyxYIMlJn0f8-97" value="" style="rounded=1;whiteSpace=wrap;html=1;" vertex="1" parent="1">
          <mxGeometry x="471" y="3027" width="175.14" height="210" as="geometry" />
        </mxCell>
        <mxCell id="YlIWQOpzAyxYIMlJn0f8-98" style="edgeStyle=orthogonalEdgeStyle;rounded=0;orthogonalLoop=1;jettySize=auto;html=1;entryX=0;entryY=0.5;entryDx=0;entryDy=0;" edge="1" parent="1" source="YlIWQOpzAyxYIMlJn0f8-86" target="YlIWQOpzAyxYIMlJn0f8-97">
          <mxGeometry relative="1" as="geometry" />
        </mxCell>
        <mxCell id="YlIWQOpzAyxYIMlJn0f8-86" value="" style="rounded=1;whiteSpace=wrap;html=1;" vertex="1" parent="1">
          <mxGeometry x="161.86" y="3025" width="175.14" height="212" as="geometry" />
        </mxCell>
        <mxCell id="Lad8Fr3r3CEGUcIDPk0d-6" style="edgeStyle=orthogonalEdgeStyle;rounded=0;orthogonalLoop=1;jettySize=auto;html=1;entryX=0.75;entryY=0;entryDx=0;entryDy=0;" parent="1" edge="1">
          <mxGeometry relative="1" as="geometry">
            <mxPoint x="539" y="183" as="sourcePoint" />
            <mxPoint x="539" y="313" as="targetPoint" />
            <Array as="points">
              <mxPoint x="539" y="223" />
              <mxPoint x="539" y="223" />
            </Array>
          </mxGeometry>
        </mxCell>
        <mxCell id="ynIGMyl3KLA1Jwa6Q3JX-1" value="Master Node" style="rounded=1;whiteSpace=wrap;html=1;fillColor=#dae8fc;strokeColor=#6c8ebf;" parent="1" vertex="1">
          <mxGeometry x="459" y="123" width="120" height="60" as="geometry" />
        </mxCell>
        <mxCell id="ynIGMyl3KLA1Jwa6Q3JX-9" style="edgeStyle=orthogonalEdgeStyle;rounded=0;orthogonalLoop=1;jettySize=auto;html=1;entryX=0.5;entryY=1;entryDx=0;entryDy=0;" parent="1" edge="1">
          <mxGeometry relative="1" as="geometry">
            <mxPoint x="499" y="313" as="sourcePoint" />
            <mxPoint x="499" y="183" as="targetPoint" />
          </mxGeometry>
        </mxCell>
        <mxCell id="ynIGMyl3KLA1Jwa6Q3JX-2" value="Data Node&amp;nbsp;" style="rounded=1;whiteSpace=wrap;html=1;fillColor=#fff2cc;strokeColor=#d6b656;" parent="1" vertex="1">
          <mxGeometry x="459" y="313" width="120" height="60" as="geometry" />
        </mxCell>
        <mxCell id="ynIGMyl3KLA1Jwa6Q3JX-4" style="edgeStyle=orthogonalEdgeStyle;rounded=0;orthogonalLoop=1;jettySize=auto;html=1;entryX=0;entryY=0.5;entryDx=0;entryDy=0;" parent="1" source="ynIGMyl3KLA1Jwa6Q3JX-3" target="ynIGMyl3KLA1Jwa6Q3JX-1" edge="1">
          <mxGeometry relative="1" as="geometry" />
        </mxCell>
        <mxCell id="ynIGMyl3KLA1Jwa6Q3JX-6" style="edgeStyle=orthogonalEdgeStyle;rounded=0;orthogonalLoop=1;jettySize=auto;html=1;entryX=0;entryY=0.5;entryDx=0;entryDy=0;" parent="1" source="ynIGMyl3KLA1Jwa6Q3JX-3" target="ynIGMyl3KLA1Jwa6Q3JX-2" edge="1">
          <mxGeometry relative="1" as="geometry">
            <Array as="points">
              <mxPoint x="339" y="153" />
              <mxPoint x="339" y="343" />
            </Array>
          </mxGeometry>
        </mxCell>
        <mxCell id="ynIGMyl3KLA1Jwa6Q3JX-3" value="" style="aspect=fixed;sketch=0;html=1;dashed=0;whitespace=wrap;fillColor=#2875E2;strokeColor=#ffffff;points=[[0.005,0.63,0],[0.1,0.2,0],[0.9,0.2,0],[0.5,0,0],[0.995,0.63,0],[0.72,0.99,0],[0.5,1,0],[0.28,0.99,0]];shape=mxgraph.kubernetes.icon2;prIcon=deploy" parent="1" vertex="1">
          <mxGeometry x="219" y="129" width="50" height="48" as="geometry" />
        </mxCell>
        <mxCell id="ynIGMyl3KLA1Jwa6Q3JX-5" value="1. Deploy Master Node" style="text;html=1;align=center;verticalAlign=middle;resizable=0;points=[];autosize=1;strokeColor=none;fillColor=none;" parent="1" vertex="1">
          <mxGeometry x="314" y="123" width="150" height="30" as="geometry" />
        </mxCell>
        <mxCell id="ynIGMyl3KLA1Jwa6Q3JX-7" value="2. Deploy Data Node" style="text;html=1;align=center;verticalAlign=middle;resizable=0;points=[];autosize=1;strokeColor=none;fillColor=none;" parent="1" vertex="1">
          <mxGeometry x="329" y="343" width="130" height="30" as="geometry" />
        </mxCell>
        <mxCell id="ynIGMyl3KLA1Jwa6Q3JX-8" value="Kubernetes" style="text;html=1;align=center;verticalAlign=middle;resizable=0;points=[];autosize=1;strokeColor=none;fillColor=none;" parent="1" vertex="1">
          <mxGeometry x="204" y="177" width="80" height="30" as="geometry" />
        </mxCell>
        <mxCell id="ynIGMyl3KLA1Jwa6Q3JX-10" value="3. Notify Node Readiness" style="text;html=1;align=center;verticalAlign=middle;resizable=0;points=[];autosize=1;strokeColor=none;fillColor=none;" parent="1" vertex="1">
          <mxGeometry x="345" y="233" width="160" height="30" as="geometry" />
        </mxCell>
        <mxCell id="Lad8Fr3r3CEGUcIDPk0d-9" style="rounded=0;orthogonalLoop=1;jettySize=auto;html=1;exitX=0;exitY=1;exitDx=0;exitDy=0;" parent="1" source="ynIGMyl3KLA1Jwa6Q3JX-11" edge="1">
          <mxGeometry relative="1" as="geometry">
            <mxPoint x="272" y="628" as="sourcePoint" />
            <mxPoint x="222" y="728" as="targetPoint" />
          </mxGeometry>
        </mxCell>
        <mxCell id="Lad8Fr3r3CEGUcIDPk0d-13" style="rounded=0;orthogonalLoop=1;jettySize=auto;html=1;exitX=0.5;exitY=0;exitDx=0;exitDy=0;" parent="1" source="ynIGMyl3KLA1Jwa6Q3JX-15" edge="1">
          <mxGeometry relative="1" as="geometry">
            <mxPoint x="292" y="598" as="targetPoint" />
          </mxGeometry>
        </mxCell>
        <mxCell id="JyvFWMc7vc_w1mqwK3Py-6" style="edgeStyle=orthogonalEdgeStyle;rounded=0;orthogonalLoop=1;jettySize=auto;html=1;" parent="1" source="ynIGMyl3KLA1Jwa6Q3JX-11" edge="1">
          <mxGeometry relative="1" as="geometry">
            <mxPoint x="512" y="588" as="targetPoint" />
          </mxGeometry>
        </mxCell>
        <mxCell id="ynIGMyl3KLA1Jwa6Q3JX-11" value="Master Node" style="rounded=1;whiteSpace=wrap;html=1;fillColor=#dae8fc;strokeColor=#6c8ebf;" parent="1" vertex="1">
          <mxGeometry x="302" y="558" width="120" height="60" as="geometry" />
        </mxCell>
        <mxCell id="Lad8Fr3r3CEGUcIDPk0d-8" style="edgeStyle=orthogonalEdgeStyle;rounded=0;orthogonalLoop=1;jettySize=auto;html=1;" parent="1" edge="1">
          <mxGeometry relative="1" as="geometry">
            <mxPoint x="452" y="778" as="sourcePoint" />
            <mxPoint x="257" y="778" as="targetPoint" />
          </mxGeometry>
        </mxCell>
        <mxCell id="P07iO-ze8JZMlhhvMRNp-2" style="rounded=0;orthogonalLoop=1;jettySize=auto;html=1;" parent="1" edge="1">
          <mxGeometry relative="1" as="geometry">
            <mxPoint x="428.16668701171875" y="639.0033435058593" as="targetPoint" />
            <mxPoint x="490.5" y="713.67" as="sourcePoint" />
          </mxGeometry>
        </mxCell>
        <mxCell id="ynIGMyl3KLA1Jwa6Q3JX-12" value="Data Node&amp;nbsp;" style="rounded=1;whiteSpace=wrap;html=1;fillColor=#fff2cc;strokeColor=#d6b656;" parent="1" vertex="1">
          <mxGeometry x="459" y="718" width="120" height="60" as="geometry" />
        </mxCell>
        <mxCell id="Lad8Fr3r3CEGUcIDPk0d-7" style="edgeStyle=orthogonalEdgeStyle;rounded=0;orthogonalLoop=1;jettySize=auto;html=1;" parent="1" edge="1">
          <mxGeometry relative="1" as="geometry">
            <mxPoint x="252" y="758" as="sourcePoint" />
            <mxPoint x="442" y="758" as="targetPoint" />
          </mxGeometry>
        </mxCell>
        <mxCell id="ynIGMyl3KLA1Jwa6Q3JX-15" value="Data Node&amp;nbsp;" style="rounded=1;whiteSpace=wrap;html=1;fillColor=#fff2cc;strokeColor=#d6b656;" parent="1" vertex="1">
          <mxGeometry x="132" y="738" width="120" height="60" as="geometry" />
        </mxCell>
        <mxCell id="ynIGMyl3KLA1Jwa6Q3JX-17" value="5. Signal Data Transfer" style="text;html=1;align=center;verticalAlign=middle;resizable=0;points=[];autosize=1;strokeColor=none;fillColor=default;" parent="1" vertex="1">
          <mxGeometry x="261" y="643" width="141" height="26" as="geometry" />
        </mxCell>
        <mxCell id="ynIGMyl3KLA1Jwa6Q3JX-19" value="6. Move Data to new node" style="text;html=1;align=center;verticalAlign=middle;resizable=0;points=[];autosize=1;strokeColor=none;fillColor=none;" parent="1" vertex="1">
          <mxGeometry x="263" y="730" width="158" height="26" as="geometry" />
        </mxCell>
        <mxCell id="ynIGMyl3KLA1Jwa6Q3JX-21" value="8. Attach node to ring" style="text;html=1;align=center;verticalAlign=middle;resizable=0;points=[];autosize=1;strokeColor=none;fillColor=default;" parent="1" vertex="1">
          <mxGeometry x="118" y="662" width="131" height="26" as="geometry" />
        </mxCell>
        <mxCell id="Lad8Fr3r3CEGUcIDPk0d-5" value="4. Check Data Node is Live" style="text;html=1;align=center;verticalAlign=middle;resizable=0;points=[];autosize=1;strokeColor=none;fillColor=none;" parent="1" vertex="1">
          <mxGeometry x="531" y="233" width="170" height="30" as="geometry" />
        </mxCell>
        <mxCell id="Lad8Fr3r3CEGUcIDPk0d-10" value="Overloaded SRC" style="text;html=1;align=center;verticalAlign=middle;resizable=0;points=[];autosize=1;strokeColor=none;fillColor=none;" parent="1" vertex="1">
          <mxGeometry x="140" y="810" width="109" height="26" as="geometry" />
        </mxCell>
        <mxCell id="Lad8Fr3r3CEGUcIDPk0d-11" value="TARGET" style="text;html=1;align=center;verticalAlign=middle;resizable=0;points=[];autosize=1;strokeColor=none;fillColor=none;" parent="1" vertex="1">
          <mxGeometry x="512" y="808" width="70" height="30" as="geometry" />
        </mxCell>
        <mxCell id="Lad8Fr3r3CEGUcIDPk0d-12" value="7. Acknowledgement" style="text;html=1;align=center;verticalAlign=middle;resizable=0;points=[];autosize=1;strokeColor=none;fillColor=none;" parent="1" vertex="1">
          <mxGeometry x="282" y="778" width="130" height="30" as="geometry" />
        </mxCell>
        <mxCell id="JyvFWMc7vc_w1mqwK3Py-7" value="" style="aspect=fixed;sketch=0;html=1;dashed=0;whitespace=wrap;fillColor=#2875E2;strokeColor=#ffffff;points=[[0.005,0.63,0],[0.1,0.2,0],[0.9,0.2,0],[0.5,0,0],[0.995,0.63,0],[0.72,0.99,0],[0.5,1,0],[0.28,0.99,0]];shape=mxgraph.kubernetes.icon2;kubernetesLabel=1;prIcon=pod" parent="1" vertex="1">
          <mxGeometry x="549" y="353" width="50" height="48" as="geometry" />
        </mxCell>
        <mxCell id="JyvFWMc7vc_w1mqwK3Py-8" value="" style="aspect=fixed;sketch=0;html=1;dashed=0;whitespace=wrap;fillColor=#2875E2;strokeColor=#ffffff;points=[[0.005,0.63,0],[0.1,0.2,0],[0.9,0.2,0],[0.5,0,0],[0.995,0.63,0],[0.72,0.99,0],[0.5,1,0],[0.28,0.99,0]];shape=mxgraph.kubernetes.icon2;kubernetesLabel=1;prIcon=pod" parent="1" vertex="1">
          <mxGeometry x="549" y="159" width="50" height="48" as="geometry" />
        </mxCell>
        <mxCell id="JyvFWMc7vc_w1mqwK3Py-14" value="Data Node&amp;nbsp;" style="rounded=1;whiteSpace=wrap;html=1;fillColor=#fff2cc;strokeColor=#d6b656;" parent="1" vertex="1">
          <mxGeometry x="469" y="728" width="120" height="60" as="geometry" />
        </mxCell>
        <mxCell id="JyvFWMc7vc_w1mqwK3Py-15" value="Data Node&amp;nbsp;" style="rounded=1;whiteSpace=wrap;html=1;fillColor=#fff2cc;strokeColor=#d6b656;" parent="1" vertex="1">
          <mxGeometry x="479" y="738" width="120" height="60" as="geometry" />
        </mxCell>
        <mxCell id="JyvFWMc7vc_w1mqwK3Py-16" value="" style="aspect=fixed;sketch=0;html=1;dashed=0;whitespace=wrap;fillColor=#2875E2;strokeColor=#ffffff;points=[[0.005,0.63,0],[0.1,0.2,0],[0.9,0.2,0],[0.5,0,0],[0.995,0.63,0],[0.72,0.99,0],[0.5,1,0],[0.28,0.99,0]];shape=mxgraph.kubernetes.icon2;kubernetesLabel=1;prIcon=pod" parent="1" vertex="1">
          <mxGeometry x="402" y="598" width="39.58" height="38" as="geometry" />
        </mxCell>
        <mxCell id="JyvFWMc7vc_w1mqwK3Py-17" value="" style="aspect=fixed;sketch=0;html=1;dashed=0;whitespace=wrap;fillColor=#2875E2;strokeColor=#ffffff;points=[[0.005,0.63,0],[0.1,0.2,0],[0.9,0.2,0],[0.5,0,0],[0.995,0.63,0],[0.72,0.99,0],[0.5,1,0],[0.28,0.99,0]];shape=mxgraph.kubernetes.icon2;kubernetesLabel=1;prIcon=pod" parent="1" vertex="1">
          <mxGeometry x="112" y="778" width="39.58" height="38" as="geometry" />
        </mxCell>
        <mxCell id="JyvFWMc7vc_w1mqwK3Py-18" value="" style="aspect=fixed;sketch=0;html=1;dashed=0;whitespace=wrap;fillColor=#2875E2;strokeColor=#ffffff;points=[[0.005,0.63,0],[0.1,0.2,0],[0.9,0.2,0],[0.5,0,0],[0.995,0.63,0],[0.72,0.99,0],[0.5,1,0],[0.28,0.99,0]];shape=mxgraph.kubernetes.icon2;kubernetesLabel=1;prIcon=pod" parent="1" vertex="1">
          <mxGeometry x="572" y="770" width="39.58" height="38" as="geometry" />
        </mxCell>
        <mxCell id="JyvFWMc7vc_w1mqwK3Py-19" value="" style="image;sketch=0;aspect=fixed;html=1;points=[];align=center;fontSize=12;image=img/lib/mscae/Kubernetes.svg;" parent="1" vertex="1">
          <mxGeometry x="589" y="543" width="93.75" height="90" as="geometry" />
        </mxCell>
        <mxCell id="JyvFWMc7vc_w1mqwK3Py-22" style="edgeStyle=orthogonalEdgeStyle;rounded=0;orthogonalLoop=1;jettySize=auto;html=1;" parent="1" source="JyvFWMc7vc_w1mqwK3Py-20" edge="1">
          <mxGeometry relative="1" as="geometry">
            <mxPoint x="622" y="768" as="targetPoint" />
            <Array as="points">
              <mxPoint x="646" y="768" />
            </Array>
          </mxGeometry>
        </mxCell>
        <mxCell id="JyvFWMc7vc_w1mqwK3Py-20" value="" style="aspect=fixed;sketch=0;html=1;dashed=0;whitespace=wrap;fillColor=#2875E2;strokeColor=#ffffff;points=[[0.005,0.63,0],[0.1,0.2,0],[0.9,0.2,0],[0.5,0,0],[0.995,0.63,0],[0.72,0.99,0],[0.5,1,0],[0.28,0.99,0]];shape=mxgraph.kubernetes.icon2;prIcon=api" parent="1" vertex="1">
          <mxGeometry x="620.88" y="639" width="50" height="48" as="geometry" />
        </mxCell>
        <mxCell id="JyvFWMc7vc_w1mqwK3Py-23" value="1. Up Scale" style="text;html=1;align=center;verticalAlign=middle;resizable=0;points=[];autosize=1;strokeColor=none;fillColor=none;" parent="1" vertex="1">
          <mxGeometry x="432" y="560" width="80" height="26" as="geometry" />
        </mxCell>
        <mxCell id="JyvFWMc7vc_w1mqwK3Py-24" value="2. Increase Replicas" style="text;html=1;align=center;verticalAlign=middle;resizable=0;points=[];autosize=1;strokeColor=none;fillColor=default;" parent="1" vertex="1">
          <mxGeometry x="624" y="710" width="127" height="26" as="geometry" />
        </mxCell>
        <mxCell id="P07iO-ze8JZMlhhvMRNp-1" value="" style="aspect=fixed;sketch=0;html=1;dashed=0;whitespace=wrap;fillColor=#2875E2;strokeColor=#ffffff;points=[[0.005,0.63,0],[0.1,0.2,0],[0.9,0.2,0],[0.5,0,0],[0.995,0.63,0],[0.72,0.99,0],[0.5,1,0],[0.28,0.99,0]];shape=mxgraph.kubernetes.icon2;prIcon=api" parent="1" vertex="1">
          <mxGeometry x="526" y="564" width="50" height="48" as="geometry" />
        </mxCell>
        <mxCell id="P07iO-ze8JZMlhhvMRNp-3" value="3. Notify Readiness" style="text;html=1;align=center;verticalAlign=middle;resizable=0;points=[];autosize=1;strokeColor=none;fillColor=default;" parent="1" vertex="1">
          <mxGeometry x="368.5" y="676" width="122" height="26" as="geometry" />
        </mxCell>
        <mxCell id="P07iO-ze8JZMlhhvMRNp-5" value="" style="endArrow=classic;html=1;rounded=0;" parent="1" edge="1">
          <mxGeometry width="50" height="50" relative="1" as="geometry">
            <mxPoint x="449" y="618" as="sourcePoint" />
            <mxPoint x="519" y="705" as="targetPoint" />
          </mxGeometry>
        </mxCell>
        <mxCell id="P07iO-ze8JZMlhhvMRNp-6" value="4. Verify health" style="text;html=1;align=center;verticalAlign=middle;resizable=0;points=[];autosize=1;strokeColor=none;fillColor=default;" parent="1" vertex="1">
          <mxGeometry x="457" y="636" width="97" height="26" as="geometry" />
        </mxCell>
        <mxCell id="P07iO-ze8JZMlhhvMRNp-11" value="Master Node" style="rounded=1;whiteSpace=wrap;html=1;fillColor=#dae8fc;strokeColor=#6c8ebf;" parent="1" vertex="1">
          <mxGeometry x="133.5" y="1306" width="120" height="60" as="geometry" />
        </mxCell>
        <mxCell id="P07iO-ze8JZMlhhvMRNp-12" style="edgeStyle=orthogonalEdgeStyle;rounded=0;orthogonalLoop=1;jettySize=auto;html=1;" parent="1" edge="1">
          <mxGeometry relative="1" as="geometry">
            <mxPoint x="452" y="1546" as="sourcePoint" />
            <mxPoint x="257" y="1546" as="targetPoint" />
          </mxGeometry>
        </mxCell>
        <mxCell id="P07iO-ze8JZMlhhvMRNp-15" style="edgeStyle=orthogonalEdgeStyle;rounded=0;orthogonalLoop=1;jettySize=auto;html=1;" parent="1" edge="1">
          <mxGeometry relative="1" as="geometry">
            <mxPoint x="260" y="1526" as="sourcePoint" />
            <mxPoint x="442" y="1526" as="targetPoint" />
          </mxGeometry>
        </mxCell>
        <mxCell id="P07iO-ze8JZMlhhvMRNp-16" value="Data Node&amp;nbsp;" style="rounded=1;whiteSpace=wrap;html=1;fillColor=#fff2cc;strokeColor=#d6b656;" parent="1" vertex="1">
          <mxGeometry x="132" y="1506" width="120" height="60" as="geometry" />
        </mxCell>
        <mxCell id="P07iO-ze8JZMlhhvMRNp-18" value="3. Move Data to next node" style="text;html=1;align=center;verticalAlign=middle;resizable=0;points=[];autosize=1;strokeColor=none;fillColor=none;" parent="1" vertex="1">
          <mxGeometry x="263" y="1498" width="159" height="26" as="geometry" />
        </mxCell>
        <mxCell id="P07iO-ze8JZMlhhvMRNp-20" value="Underloaded SRC" style="text;html=1;align=center;verticalAlign=middle;resizable=0;points=[];autosize=1;strokeColor=none;fillColor=none;" parent="1" vertex="1">
          <mxGeometry x="136" y="1580" width="115" height="26" as="geometry" />
        </mxCell>
        <mxCell id="P07iO-ze8JZMlhhvMRNp-21" value="TARGET" style="text;html=1;align=center;verticalAlign=middle;resizable=0;points=[];autosize=1;strokeColor=none;fillColor=none;" parent="1" vertex="1">
          <mxGeometry x="494.5" y="1570" width="70" height="30" as="geometry" />
        </mxCell>
        <mxCell id="P07iO-ze8JZMlhhvMRNp-22" value="4. Acknowledgement" style="text;html=1;align=center;verticalAlign=middle;resizable=0;points=[];autosize=1;strokeColor=none;fillColor=none;" parent="1" vertex="1">
          <mxGeometry x="283" y="1548" width="129" height="26" as="geometry" />
        </mxCell>
        <mxCell id="P07iO-ze8JZMlhhvMRNp-24" value="Data Node&amp;nbsp;" style="rounded=1;whiteSpace=wrap;html=1;fillColor=#fff2cc;strokeColor=#d6b656;" parent="1" vertex="1">
          <mxGeometry x="469" y="1506" width="120" height="60" as="geometry" />
        </mxCell>
        <mxCell id="P07iO-ze8JZMlhhvMRNp-25" value="" style="aspect=fixed;sketch=0;html=1;dashed=0;whitespace=wrap;fillColor=#2875E2;strokeColor=#ffffff;points=[[0.005,0.63,0],[0.1,0.2,0],[0.9,0.2,0],[0.5,0,0],[0.995,0.63,0],[0.72,0.99,0],[0.5,1,0],[0.28,0.99,0]];shape=mxgraph.kubernetes.icon2;kubernetesLabel=1;prIcon=pod" parent="1" vertex="1">
          <mxGeometry x="231" y="1342" width="39.58" height="38" as="geometry" />
        </mxCell>
        <mxCell id="P07iO-ze8JZMlhhvMRNp-26" value="" style="aspect=fixed;sketch=0;html=1;dashed=0;whitespace=wrap;fillColor=#2875E2;strokeColor=#ffffff;points=[[0.005,0.63,0],[0.1,0.2,0],[0.9,0.2,0],[0.5,0,0],[0.995,0.63,0],[0.72,0.99,0],[0.5,1,0],[0.28,0.99,0]];shape=mxgraph.kubernetes.icon2;kubernetesLabel=1;prIcon=pod" parent="1" vertex="1">
          <mxGeometry x="112" y="1546" width="39.58" height="38" as="geometry" />
        </mxCell>
        <mxCell id="P07iO-ze8JZMlhhvMRNp-27" value="" style="aspect=fixed;sketch=0;html=1;dashed=0;whitespace=wrap;fillColor=#2875E2;strokeColor=#ffffff;points=[[0.005,0.63,0],[0.1,0.2,0],[0.9,0.2,0],[0.5,0,0],[0.995,0.63,0],[0.72,0.99,0],[0.5,1,0],[0.28,0.99,0]];shape=mxgraph.kubernetes.icon2;kubernetesLabel=1;prIcon=pod" parent="1" vertex="1">
          <mxGeometry x="572" y="1538" width="39.58" height="38" as="geometry" />
        </mxCell>
        <mxCell id="P07iO-ze8JZMlhhvMRNp-28" value="" style="image;sketch=0;aspect=fixed;html=1;points=[];align=center;fontSize=12;image=img/lib/mscae/Kubernetes.svg;" parent="1" vertex="1">
          <mxGeometry x="589" y="1311" width="93.75" height="90" as="geometry" />
        </mxCell>
        <mxCell id="P07iO-ze8JZMlhhvMRNp-29" style="edgeStyle=orthogonalEdgeStyle;rounded=0;orthogonalLoop=1;jettySize=auto;html=1;" parent="1" source="P07iO-ze8JZMlhhvMRNp-30" edge="1">
          <mxGeometry relative="1" as="geometry">
            <mxPoint x="622" y="1536" as="targetPoint" />
            <Array as="points">
              <mxPoint x="646" y="1536" />
            </Array>
          </mxGeometry>
        </mxCell>
        <mxCell id="P07iO-ze8JZMlhhvMRNp-30" value="" style="aspect=fixed;sketch=0;html=1;dashed=0;whitespace=wrap;fillColor=#2875E2;strokeColor=#ffffff;points=[[0.005,0.63,0],[0.1,0.2,0],[0.9,0.2,0],[0.5,0,0],[0.995,0.63,0],[0.72,0.99,0],[0.5,1,0],[0.28,0.99,0]];shape=mxgraph.kubernetes.icon2;prIcon=api" parent="1" vertex="1">
          <mxGeometry x="620.88" y="1407" width="50" height="48" as="geometry" />
        </mxCell>
        <mxCell id="P07iO-ze8JZMlhhvMRNp-31" value="6. Scale Down Replica" style="text;html=1;align=center;verticalAlign=middle;resizable=0;points=[];autosize=1;strokeColor=none;fillColor=none;" parent="1" vertex="1">
          <mxGeometry x="301.5" y="1323" width="139" height="26" as="geometry" />
        </mxCell>
        <mxCell id="P07iO-ze8JZMlhhvMRNp-32" value="7. Delete Replicas" style="text;html=1;align=center;verticalAlign=middle;resizable=0;points=[];autosize=1;strokeColor=none;fillColor=default;" parent="1" vertex="1">
          <mxGeometry x="630" y="1478" width="115" height="26" as="geometry" />
        </mxCell>
        <mxCell id="P07iO-ze8JZMlhhvMRNp-33" value="" style="aspect=fixed;sketch=0;html=1;dashed=0;whitespace=wrap;fillColor=#2875E2;strokeColor=#ffffff;points=[[0.005,0.63,0],[0.1,0.2,0],[0.9,0.2,0],[0.5,0,0],[0.995,0.63,0],[0.72,0.99,0],[0.5,1,0],[0.28,0.99,0]];shape=mxgraph.kubernetes.icon2;prIcon=api" parent="1" vertex="1">
          <mxGeometry x="526" y="1332" width="50" height="48" as="geometry" />
        </mxCell>
        <mxCell id="P07iO-ze8JZMlhhvMRNp-39" value="" style="endArrow=classic;html=1;rounded=0;" parent="1" edge="1">
          <mxGeometry width="50" height="50" relative="1" as="geometry">
            <mxPoint x="163" y="1489" as="sourcePoint" />
            <mxPoint x="163" y="1379" as="targetPoint" />
          </mxGeometry>
        </mxCell>
        <mxCell id="P07iO-ze8JZMlhhvMRNp-40" value="1. Report underloaded" style="text;html=1;align=center;verticalAlign=middle;resizable=0;points=[];autosize=1;strokeColor=none;fillColor=default;" parent="1" vertex="1">
          <mxGeometry x="52" y="1420" width="137" height="26" as="geometry" />
        </mxCell>
        <mxCell id="P07iO-ze8JZMlhhvMRNp-41" value="" style="endArrow=classic;html=1;rounded=0;" parent="1" edge="1">
          <mxGeometry width="50" height="50" relative="1" as="geometry">
            <mxPoint x="199" y="1380" as="sourcePoint" />
            <mxPoint x="191" y="1487" as="targetPoint" />
          </mxGeometry>
        </mxCell>
        <mxCell id="P07iO-ze8JZMlhhvMRNp-42" value="2. Signal Data Transfer" style="text;html=1;align=center;verticalAlign=middle;resizable=0;points=[];autosize=1;strokeColor=none;fillColor=default;" parent="1" vertex="1">
          <mxGeometry x="175.58" y="1389" width="141" height="26" as="geometry" />
        </mxCell>
        <mxCell id="P07iO-ze8JZMlhhvMRNp-43" value="" style="endArrow=classic;html=1;rounded=0;" parent="1" edge="1">
          <mxGeometry width="50" height="50" relative="1" as="geometry">
            <mxPoint x="232" y="1491" as="sourcePoint" />
            <mxPoint x="227" y="1379" as="targetPoint" />
          </mxGeometry>
        </mxCell>
        <mxCell id="P07iO-ze8JZMlhhvMRNp-44" value="5. Remove node from ring" style="text;html=1;align=center;verticalAlign=middle;resizable=0;points=[];autosize=1;strokeColor=none;fillColor=default;" parent="1" vertex="1">
          <mxGeometry x="206" y="1444" width="157" height="26" as="geometry" />
        </mxCell>
        <mxCell id="P07iO-ze8JZMlhhvMRNp-45" value="" style="endArrow=classic;html=1;rounded=0;" parent="1" edge="1">
          <mxGeometry width="50" height="50" relative="1" as="geometry">
            <mxPoint x="271" y="1343" as="sourcePoint" />
            <mxPoint x="519" y="1359" as="targetPoint" />
          </mxGeometry>
        </mxCell>
        <mxCell id="P07iO-ze8JZMlhhvMRNp-46" value="" style="ellipse;whiteSpace=wrap;html=1;aspect=fixed;" parent="1" vertex="1">
          <mxGeometry x="238" y="1793" width="283" height="283" as="geometry" />
        </mxCell>
        <mxCell id="P07iO-ze8JZMlhhvMRNp-47" value="&lt;b&gt;&lt;font style=&quot;font-size: 15px;&quot;&gt;0&lt;/font&gt;&lt;/b&gt;" style="whiteSpace=wrap;html=1;aspect=fixed;fillColor=#dae8fc;strokeColor=#6c8ebf;" parent="1" vertex="1">
          <mxGeometry x="358" y="1776" width="32" height="32" as="geometry" />
        </mxCell>
        <mxCell id="P07iO-ze8JZMlhhvMRNp-59" style="edgeStyle=orthogonalEdgeStyle;rounded=0;orthogonalLoop=1;jettySize=auto;html=1;curved=1;" parent="1" edge="1">
          <mxGeometry relative="1" as="geometry">
            <mxPoint x="377" y="2049" as="sourcePoint" />
            <mxPoint x="303" y="1840" as="targetPoint" />
            <Array as="points">
              <mxPoint x="377" y="1840" />
            </Array>
          </mxGeometry>
        </mxCell>
        <mxCell id="P07iO-ze8JZMlhhvMRNp-48" value="&lt;b&gt;&lt;font style=&quot;font-size: 15px;&quot;&gt;5&lt;/font&gt;&lt;/b&gt;" style="whiteSpace=wrap;html=1;aspect=fixed;fillColor=#fff2cc;strokeColor=#d6b656;" parent="1" vertex="1">
          <mxGeometry x="358" y="2060" width="32" height="32" as="geometry" />
        </mxCell>
        <mxCell id="P07iO-ze8JZMlhhvMRNp-49" value="&lt;b&gt;&lt;font style=&quot;font-size: 15px;&quot;&gt;4&lt;/font&gt;&lt;/b&gt;" style="whiteSpace=wrap;html=1;aspect=fixed;fillColor=#dae8fc;strokeColor=#6c8ebf;" parent="1" vertex="1">
          <mxGeometry x="482" y="1842" width="32" height="32" as="geometry" />
        </mxCell>
        <mxCell id="P07iO-ze8JZMlhhvMRNp-50" value="&lt;b&gt;&lt;font style=&quot;font-size: 15px;&quot;&gt;2&lt;/font&gt;&lt;/b&gt;" style="whiteSpace=wrap;html=1;aspect=fixed;fillColor=#dae8fc;strokeColor=#6c8ebf;" parent="1" vertex="1">
          <mxGeometry x="221.5" y="1926" width="32" height="32" as="geometry" />
        </mxCell>
        <mxCell id="P07iO-ze8JZMlhhvMRNp-51" value="&lt;b&gt;&lt;font style=&quot;font-size: 15px;&quot;&gt;3&lt;/font&gt;&lt;/b&gt;" style="whiteSpace=wrap;html=1;aspect=fixed;fillColor=#dae8fc;strokeColor=#6c8ebf;" parent="1" vertex="1">
          <mxGeometry x="473" y="2006" width="32" height="32" as="geometry" />
        </mxCell>
        <mxCell id="P07iO-ze8JZMlhhvMRNp-52" value="Statefulset" style="text;html=1;align=center;verticalAlign=middle;resizable=0;points=[];autosize=1;strokeColor=none;fillColor=none;" parent="1" vertex="1">
          <mxGeometry x="607.75" y="1786" width="75" height="26" as="geometry" />
        </mxCell>
        <mxCell id="P07iO-ze8JZMlhhvMRNp-53" value="&lt;ul&gt;&lt;li&gt;datanode-0&lt;/li&gt;&lt;li&gt;datanode-1&lt;/li&gt;&lt;li&gt;datanode-2&lt;/li&gt;&lt;li&gt;datanode-3&lt;/li&gt;&lt;li&gt;datanode-4&lt;/li&gt;&lt;li&gt;datanode-5&lt;/li&gt;&lt;/ul&gt;" style="text;html=1;align=left;verticalAlign=middle;resizable=0;points=[];autosize=1;strokeColor=none;fillColor=none;" parent="1" vertex="1">
          <mxGeometry x="579" y="1801" width="119" height="122" as="geometry" />
        </mxCell>
        <mxCell id="P07iO-ze8JZMlhhvMRNp-57" style="edgeStyle=orthogonalEdgeStyle;rounded=0;orthogonalLoop=1;jettySize=auto;html=1;entryX=0.5;entryY=1;entryDx=0;entryDy=0;curved=1;" parent="1" edge="1">
          <mxGeometry relative="1" as="geometry">
            <mxPoint x="372" y="2094" as="targetPoint" />
            <mxPoint x="259" y="1842" as="sourcePoint" />
            <Array as="points">
              <mxPoint x="157" y="1842" />
              <mxPoint x="157" y="2147" />
              <mxPoint x="372" y="2147" />
            </Array>
          </mxGeometry>
        </mxCell>
        <mxCell id="P07iO-ze8JZMlhhvMRNp-58" style="edgeStyle=orthogonalEdgeStyle;rounded=0;orthogonalLoop=1;jettySize=auto;html=1;curved=1;" parent="1" edge="1">
          <mxGeometry relative="1" as="geometry">
            <mxPoint x="251" y="1831" as="sourcePoint" />
            <mxPoint x="211" y="1942" as="targetPoint" />
            <Array as="points">
              <mxPoint x="146" y="1840" />
              <mxPoint x="146" y="1942" />
            </Array>
          </mxGeometry>
        </mxCell>
        <mxCell id="P07iO-ze8JZMlhhvMRNp-54" value="&lt;b&gt;&lt;font style=&quot;font-size: 15px;&quot;&gt;1&lt;/font&gt;&lt;/b&gt;" style="whiteSpace=wrap;html=1;aspect=fixed;dashed=1;fillColor=#f8cecc;strokeColor=#b85450;" parent="1" vertex="1">
          <mxGeometry x="261" y="1824" width="32" height="32" as="geometry" />
        </mxCell>
        <mxCell id="P07iO-ze8JZMlhhvMRNp-60" value="1. Move data to free node-1" style="text;html=1;align=center;verticalAlign=middle;resizable=0;points=[];autosize=1;strokeColor=none;fillColor=default;" parent="1" vertex="1">
          <mxGeometry x="41" y="1821" width="165" height="26" as="geometry" />
        </mxCell>
        <mxCell id="P07iO-ze8JZMlhhvMRNp-61" value="3. Copy data to replace node-5" style="text;html=1;align=center;verticalAlign=middle;resizable=0;points=[];autosize=1;strokeColor=none;fillColor=default;" parent="1" vertex="1">
          <mxGeometry x="322" y="1943" width="183" height="26" as="geometry" />
        </mxCell>
        <mxCell id="P07iO-ze8JZMlhhvMRNp-62" value="4. Replace Node-1 with Node-5" style="text;html=1;align=center;verticalAlign=middle;resizable=0;points=[];autosize=1;strokeColor=none;fillColor=default;" parent="1" vertex="1">
          <mxGeometry x="112" y="2087" width="185" height="26" as="geometry" />
        </mxCell>
        <mxCell id="P07iO-ze8JZMlhhvMRNp-63" value="2. Free Node-1" style="text;html=1;align=center;verticalAlign=middle;resizable=0;points=[];autosize=1;strokeColor=none;fillColor=none;" parent="1" vertex="1">
          <mxGeometry x="221.5" y="1793" width="99" height="26" as="geometry" />
        </mxCell>
        <mxCell id="P07iO-ze8JZMlhhvMRNp-64" value="&lt;b&gt;&lt;font style=&quot;font-size: 15px;&quot;&gt;1&lt;/font&gt;&lt;/b&gt;" style="whiteSpace=wrap;html=1;aspect=fixed;dashed=1;fillColor=#d5e8d4;strokeColor=#82b366;" parent="1" vertex="1">
          <mxGeometry x="380" y="2078" width="32" height="32" as="geometry" />
        </mxCell>
        <mxCell id="P07iO-ze8JZMlhhvMRNp-66" value="&lt;b&gt;&lt;font style=&quot;font-size: 15px;&quot;&gt;5&lt;/font&gt;&lt;/b&gt;" style="whiteSpace=wrap;html=1;aspect=fixed;fillColor=#f8cecc;strokeColor=#b85450;" parent="1" vertex="1">
          <mxGeometry x="469" y="2078" width="32" height="32" as="geometry" />
        </mxCell>
        <mxCell id="P07iO-ze8JZMlhhvMRNp-69" value="5. Free Node-5" style="text;html=1;align=center;verticalAlign=middle;resizable=0;points=[];autosize=1;strokeColor=none;fillColor=none;" parent="1" vertex="1">
          <mxGeometry x="505" y="2081" width="99" height="26" as="geometry" />
        </mxCell>
        <mxCell id="P07iO-ze8JZMlhhvMRNp-75" style="edgeStyle=orthogonalEdgeStyle;rounded=0;orthogonalLoop=1;jettySize=auto;html=1;curved=1;" parent="1" source="P07iO-ze8JZMlhhvMRNp-71" edge="1">
          <mxGeometry relative="1" as="geometry">
            <mxPoint x="553.3333740234375" y="2063.9999389648438" as="targetPoint" />
          </mxGeometry>
        </mxCell>
        <mxCell id="P07iO-ze8JZMlhhvMRNp-71" value="" style="aspect=fixed;sketch=0;html=1;dashed=0;whitespace=wrap;fillColor=#2875E2;strokeColor=#ffffff;points=[[0.005,0.63,0],[0.1,0.2,0],[0.9,0.2,0],[0.5,0,0],[0.995,0.63,0],[0.72,0.99,0],[0.5,1,0],[0.28,0.99,0]];shape=mxgraph.kubernetes.icon2;prIcon=api" parent="1" vertex="1">
          <mxGeometry x="630" y="1977" width="50" height="48" as="geometry" />
        </mxCell>
        <mxCell id="P07iO-ze8JZMlhhvMRNp-73" value="Kubernetes" style="sketch=0;html=1;verticalAlign=top;labelPosition=center;verticalLabelPosition=bottom;align=center;spacingTop=-6;fontSize=11;fontStyle=1;fontColor=#999999;shape=image;aspect=fixed;imageAspect=0;image=data:image/svg+xml,PHN2ZyB4bWxucz0iaHR0cDovL3d3dy53My5vcmcvMjAwMC9zdmciIHhtbG5zOnY9Imh0dHBzOi8vdmVjdGEuaW8vbmFubyIgd2lkdGg9IjcwMi44NDYzMTM0NzY1NjI1IiBoZWlnaHQ9IjY4MS45NjcxMDIwNTA3ODEyIiB2aWV3Qm94PSIxMC4wMDEwMjYxNTM1NjQ0NTMgMTAuMDAwOTMzNjQ3MTU1NzYyIDcwMi44NDYzMTM0NzY1NjI1IDY4MS45NjcxMDIwNTA3ODEyIj4mI3hhOwk8c3R5bGUgdHlwZT0idGV4dC9jc3MiPiYjeGE7CS5zdDB7ZmlsbDojMzI2Y2U1O30mI3hhOwkuc3Qxe2ZpbGw6I2ZmZjt9JiN4YTsJPC9zdHlsZT4mI3hhOwk8cGF0aCBjbGFzcz0ic3QwIiBkPSJNMzU4Ljk4NyAxMC4wNmMtNi4yMTMuMzEzLTEyLjMwMSAxLjg1NC0xNy45MDYgNC41MzFMOTYuNzM3IDEzMS4zNDJjLTEyLjgxMSA2LjExOC0yMi4xMTYgMTcuNjg5LTI1LjI4MSAzMS40MzhsLTYwLjI4MSAyNjIuMjVjLTIuODEyIDEyLjIwNy0uNTI0IDI1LjAyNCA2LjM0NCAzNS41MzFhNDYuMzUgNDYuMzUgMCAwIDAgMi42NTYgMy42ODhsMTY5LjEyNSAyMTAuMjgxYzguODY4IDExLjAyMiAyMi4zMTMgMTcuNDQgMzYuNTMxIDE3LjQzOGwyNzEuMjE5LS4wNjJjMTQuMjEyLjAxIDI3LjY1Ny02LjM5NiAzNi41MzEtMTcuNDA2bDE2OS4wNjMtMjEwLjMxM2M4Ljg3My0xMS4wMjggMTIuMTk3LTI1LjQ2NCA5LjAzMS0zOS4yMTlsLTYwLjM3NS0yNjIuMjVjLTMuMTY1LTEzLjc0OC0xMi40Ny0yNS4zMTktMjUuMjgxLTMxLjQzN0wzODEuNjQzIDE0LjU5MmMtNy4wNS0zLjM2OC0xNC44NDEtNC45MjYtMjIuNjU2LTQuNTMxeiIvPiYjeGE7CTxwYXRoIGNsYXNzPSJzdDEgc3QyIiBkPSJNMzYxLjQwOCA5OS4zMDhjLTguMDc3LjAwMS0xNC42MjYgNy4yNzYtMTQuNjI1IDE2LjI1IDAgLjEzOC4wMjguMjY5LjAzMS40MDYtLjAxMiAxLjIxOS0uMDcxIDIuNjg4LS4wMzEgMy43NS4xOTMgNS4xNzYgMS4zMjEgOS4xMzcgMiAxMy45MDYgMS4yMyAxMC4yMDcgMi4yNjEgMTguNjY3IDEuNjI1IDI2LjUzMS0uNjE5IDIuOTY1LTIuODAzIDUuNjc3LTQuNzUgNy41NjNsLS4zNDQgNi4xODhjLTguNzc3LjcyNy0xNy42MTIgMi4wNTktMjYuNDM3IDQuMDYzLTM3Ljk3NSA4LjYyMi03MC42NyAyOC4xODMtOTUuNTYyIDU0LjU5NC0xLjYxNS0xLjEwMi00LjQ0MS0zLjEyOS01LjI4MS0zLjc1LTIuNjExLjM1My01LjI1IDEuMTU4LTguNjg3LS44NDQtNi41NDUtNC40MDYtMTIuNTA2LTEwLjQ4Ny0xOS43MTktMTcuODEyLTMuMzA1LTMuNTA0LTUuNjk4LTYuODQxLTkuNjI1LTEwLjIxOS0uODkyLS43NjctMi4yNTMtMS44MDUtMy4yNS0yLjU5NC0zLjA3LTIuNDQ4LTYuNjkxLTMuNzI0LTEwLjE4Ny0zLjg0NC00LjQ5Ni0uMTU0LTguODI0IDEuNjA0LTExLjY1NiA1LjE1Ni01LjAzNSA2LjMxNS0zLjQyMyAxNS45NjggMy41OTQgMjEuNTYzLjA3MS4wNTcuMTQ3LjEwMS4yMTkuMTU2Ljk2NC43ODIgMi4xNDUgMS43ODMgMy4wMzEgMi40MzggNC4xNjcgMy4wNzcgNy45NzMgNC42NTEgMTIuMTI1IDcuMDk0IDguNzQ3IDUuNDAyIDE1Ljk5OCA5Ljg4MSAyMS43NSAxNS4yODEgMi4yNDYgMi4zOTQgMi42MzkgNi42MTMgMi45MzggOC40MzhsNC42ODggNC4xODhjLTI1LjA5MyAzNy43NjQtMzYuNzA3IDg0LjQwOS0yOS44NDQgMTMxLjkzOGwtNi4xMjUgMS43ODFjLTEuNjE0IDIuMDg1LTMuODk1IDUuMzY1LTYuMjgxIDYuMzQ0LTcuNTI1IDIuMzctMTUuOTk0IDMuMjQxLTI2LjIxOSA0LjMxMy00LjguMzk5LTguOTQyLjE2MS0xNC4wMzEgMS4xMjUtMS4xMi4yMTItMi42ODEuNjE5LTMuOTA2LjkwNi0uMDQzLjAwOS0uMDgyLjAyMi0uMTI1LjAzMS0uMDY3LjAxNS0uMTU1LjA0OC0uMjE5LjA2My04LjYyIDIuMDgzLTE0LjE1OCAxMC4wMDYtMTIuMzc1IDE3LjgxM3MxMC4yMDMgMTIuNTU3IDE4Ljg3NSAxMC42ODhjLjA2My0uMDE0LjE1NC0uMDE3LjIxOS0uMDMxLjA5OC0uMDIyLjE4NC0uMDcuMjgxLS4wOTQgMS4yMDktLjI2NSAyLjcyNC0uNTYxIDMuNzgxLS44NDQgNS4wMDMtMS4zNCA4LjYyNy0zLjMwOCAxMy4xMjUtNS4wMzEgOS42NzctMy40NzEgMTcuNjkyLTYuMzcgMjUuNS03LjUgMy4yNjEtLjI1NSA2LjY5NyAyLjAxMiA4LjQwNiAyLjk2OWw2LjM3NS0xLjA5NGMxNC42NyA0NS40ODMgNDUuNDE0IDgyLjI0NSA4NC4zNDQgMTA1LjMxMmwtMi42NTYgNi4zNzVjLjk1NyAyLjQ3NSAyLjAxMyA1LjgyNSAxLjMgOC4yNjktMi44MzkgNy4zNjEtNy43MDEgMTUuMTMxLTEzLjIzOCAyMy43OTMtMi42ODEgNC4wMDItNS40MjUgNy4xMDgtNy44NDQgMTEuNjg4LS41NzkgMS4wOTYtMS4zMTYgMi43NzktMS44NzUgMy45MzgtMy43NTkgOC4wNDItMS4wMDIgMTcuMzA1IDYuMjE5IDIwLjc4MSA3LjI2NiAzLjQ5OCAxNi4yODQtLjE5MSAyMC4xODctOC4yNS4wMDYtLjAxMS4wMjYtLjAyLjAzMS0uMDMxcy0uMDA0LS4wMjMgMC0uMDMxYy41NTYtMS4xNDMgMS4zNDQtMi42NDQgMS44MTMtMy43MTkgMi4wNzItNC43NDcgMi43NjItOC44MTUgNC4yMTktMTMuNDA2IDMuODctOS43MiA1Ljk5Ni0xOS45MTkgMTEuMzIzLTI2LjI3NCAxLjQ1OS0xLjc0IDMuODM3LTIuNDA5IDYuMzAyLTMuMDdsMy4zMTMtNmMzMy45MzggMTMuMDI3IDcxLjkyNyAxNi41MjIgMTA5Ljg3NSA3LjkwNmExODkuNzcgMTg5Ljc3IDAgMCAwIDI1LjA5NC03LjU2MmwzLjEyNSA1LjYyNWMyLjUwNi44MTUgNS4yNCAxLjIzNiA3LjQ2OSA0LjUzMSAzLjk4NSA2LjgwOSA2LjcxMSAxNC44NjQgMTAuMDMxIDI0LjU5NCAxLjQ1NyA0LjU5MSAyLjE3OCA4LjY1OSA0LjI1IDEzLjQwNi40NzIgMS4wODIgMS4yNTYgMi42MDUgMS44MTMgMy43NSAzLjg5NSA4LjA4NSAxMi45NDIgMTEuNzg3IDIwLjIxOSA4LjI4MSA3LjIxOS0zLjQ3OCA5Ljk4LTEyLjc0IDYuMjE5LTIwLjc4MWwtMS45MDYtMy45MzdjLTIuNDE5LTQuNTgtNS4xNjMtNy42NTQtNy44NDQtMTEuNjU2LTUuNTM3LTguNjYyLTEwLjEzLTE1Ljg1OC0xMi45NjktMjMuMjE5LTEuMTg3LTMuNzk3LjItNi4xNTggMS4xMjUtOC42MjUtLjU1NC0uNjM1LTEuNzM5LTQuMjItMi40MzctNS45MDYgNDAuNDU3LTIzLjg4OCA3MC4yOTktNjIuMDIxIDg0LjMxMy0xMDYuMDYyIDEuODkyLjI5NyA1LjE4Mi44NzkgNi4yNSAxLjA5NCAyLjItMS40NTEgNC4yMjItMy4zNDQgOC4xODgtMy4wMzEgNy44MDggMS4xMjkgMTUuODIzIDQuMDMgMjUuNSA3LjUgNC40OTggMS43MjMgOC4xMjIgMy43MjMgMTMuMTI1IDUuMDYzIDEuMDU3LjI4MyAyLjU3Mi41NDcgMy43ODEuODEzLjA5Ny4wMjQuMTgzLjA3MS4yODEuMDk0LjA2NS4wMTUuMTU2LjAxNy4yMTkuMDMxIDguNjcyIDEuODY3IDE3LjA5NC0yLjg3OSAxOC44NzUtMTAuNjg3cy0zLjc1NC0xNS43MzItMTIuMzc1LTE3LjgxMmMtMS4yNTQtLjI4NS0zLjAzMi0uNzY5LTQuMjUtMS01LjA4OS0uOTY0LTkuMjMxLS43MjYtMTQuMDMxLTEuMTI1LTEwLjIyNS0xLjA3MS0xOC42OTMtMS45NDMtMjYuMjE5LTQuMzEyLTMuMDY4LTEuMTktNS4yNTEtNC44NDEtNi4zMTMtNi4zNDRsLTUuOTA2LTEuNzE5YzMuMDYyLTIyLjE1NCAyLjIzNy00NS4yMTEtMy4wNjItNjguMjgxLTUuMzQ4LTIzLjI4NS0xNC44LTQ0LjU4MS0yNy40MDYtNjMuMzQ0bDUuMTg4LTQuNjU2Yy4yMzctMi42MjQuMDMzLTUuMzc2IDIuNzUtOC4yODEgNS43NTEtNS40MDEgMTMuMDAzLTkuODc5IDIxLjc1LTE1LjI4MSA0LjE1Mi0yLjQ0MyA3Ljk5LTQuMDE3IDEyLjE1Ni03LjA5NC45NDItLjY5NiAyLjIyOS0xLjc5OCAzLjIxOS0yLjU5NCA3LjAxNS01LjU5NiA4LjYzMS0xNS4yNDggMy41OTQtMjEuNTYycy0xNC43OTctNi45MDktMjEuODEyLTEuMzEyYy0uOTk5Ljc5MS0yLjM1NCAxLjgyMy0zLjI1IDIuNTk0LTMuOTI3IDMuMzc4LTYuMzUxIDYuNzE0LTkuNjU2IDEwLjIxOS03LjIxMiA3LjMyNi0xMy4xNzQgMTMuNDM4LTE5LjcxOSAxNy44NDQtMi44MzYgMS42NTEtNi45OSAxLjA4LTguODc1Ljk2OWwtNS41NjIgMy45NjljLTMxLjcxOS0zMy4yNjEtNzQuOTA1LTU0LjUyNS0xMjEuNDA2LTU4LjY1NmwtLjM0NC02LjUzMWMtMS45MDQtMS44MjItNC4yMDMtMy4zNzctNC43ODEtNy4zMTItLjYzNi03Ljg2NC40MjYtMTYuMzI1IDEuNjU2LTI2LjUzMS42NzktNC43NjkgMS44MDctOC43MyAyLTEzLjkwNi4wNDQtMS4xNzctLjAyNi0yLjg4NC0uMDMxLTQuMTU2LS4wMDEtOC45NzQtNi41NDgtMTYuMjUxLTE0LjYyNS0xNi4yNXptLTE4LjMxMiAxMTMuNDM4bC00LjM0NCA3Ni43MTktLjMxMi4xNTZjLS4yOTEgNi44NjMtNS45NCAxMi4zNDQtMTIuODc1IDEyLjM0NGExMi44MiAxMi44MiAwIDAgMS03LjU5NC0yLjQ2OWwtLjEyNS4wNjMtNjIuOTA2LTQ0LjU5NGMxOS4zMzQtMTkuMDExIDQ0LjA2My0zMy4wNiA3Mi41NjItMzkuNTMxIDUuMjA2LTEuMTgyIDEwLjQxLTIuMDU5IDE1LjU5NC0yLjY4N3ptMzYuNjU2IDBjMzMuMjczIDQuMDkyIDY0LjA0NSAxOS4xNTkgODcuNjI1IDQyLjI1bC02Mi41IDQ0LjMxMy0uMjE5LS4wOTRhMTIuOTEgMTIuOTEgMCAwIDEtMTcuNjg3LTIuMzc1Yy0xLjc3MS0yLjIyMS0yLjcwMS00LjgzMi0yLjgxMi03LjQ2OWwtLjA2Mi0uMDMxek0yMzIuMTI2IDI4My42Mmw1Ny40MzcgNTEuMzc1LS4wNjIuMzEzYTEyLjg4IDEyLjg4IDAgMCAxIDEuNjI1IDE3Ljc1IDEyLjg5IDEyLjg5IDAgMCAxLTYuNjg3IDQuNDA2bC0uMDYyLjI1LTczLjYyNSAyMS4yNWMtMy43NDctMzQuMjY1IDQuMzI5LTY3LjU3NCAyMS4zNzUtOTUuMzQ0em0yNTguMTU2LjAzMWM4LjUzNCAxMy44MzMgMTQuOTk3IDI5LjI4MiAxOC44NDQgNDYuMDMxIDMuODAxIDE2LjU0OCA0Ljc1NSAzMy4wNjcgMy4xODggNDkuMDMxbC03NC0yMS4zMTItLjA2Mi0uMzEyYy02LjYyNy0xLjgxMS0xMC42OTktOC41NTItOS4xNTYtMTUuMzEyLjYzMi0yLjc3IDIuMTAyLTUuMTEzIDQuMDk0LTYuODQ0bC0uMDMxLS4xNTYgNTcuMTI1LTUxLjEyNXptLTE0MC42NTYgNTUuMzEzaDIzLjUzMWwxNC42MjUgMTguMjgxLTUuMjUgMjIuODEzLTIxLjEyNSAxMC4xNTYtMjEuMTg3LTEwLjE4Ny01LjI1LTIyLjgxMnptNzUuNDM4IDYyLjU2M2ExMi44MyAxMi44MyAwIDAgMSAyLjk2OS4yMTlsLjEyNS0uMTU2IDc2LjE1NiAxMi44NzVjLTExLjE0NiAzMS4zMTMtMzIuNDczIDU4LjQ0LTYwLjk2OSA3Ni41OTRsLTI5LjU2Mi03MS40MDYuMDk0LS4xMjVjLTIuNzE2LTYuMzEuMDAyLTEzLjcxIDYuMjUtMTYuNzE5IDEuNi0uNzcgMy4yNzEtMS4xOTcgNC45MzgtMS4yODF6bS0xMjcuOTA2LjMxM2ExMi45IDEyLjkgMCAwIDEgMTIuMzc1IDEwLjAzMSAxMi43NyAxMi43NyAwIDAgMS0uNzE5IDcuOTM4bC4yMTkuMjgxLTI5LjI1IDcwLjY4OGMtMjcuMzQ3LTE3LjU0OS00OS4xMjktNDMuODI0LTYwLjc4MS03Ni4wNjJsNzUuNS0xMi44MTIuMTI1LjE1NmMuODQ1LS4xNTUgMS43MDEtLjIzIDIuNTMxLS4yMTl6bTYzLjc4MSAzMC45NjljMi4wMjQtLjA3NCA0LjA3OS4zNDEgNi4wMzEgMS4yODEgMi41NiAxLjIzMyA0LjUzNyAzLjE3MyA1Ljc4MSA1LjVoLjI4MWwzNy4yMTkgNjcuMjVjLTQuODMgMS42MTktOS43OTYgMy4wMDMtMTQuODc1IDQuMTU2LTI4LjQ2NSA2LjQ2My01Ni44MzkgNC41MDUtODIuNTMxLTQuMjVsMzcuMTI1LTY3LjEyNWguMDYzYTEyLjkxIDEyLjkxIDAgMCAxIDEwLjkwNi02LjgxMnoiIHN0cm9rZT0ibm9uZSIgc3Ryb2tlLXdpZHRoPSIuMjUiLz4mI3hhOzwvc3ZnPg==;" parent="1" vertex="1">
          <mxGeometry x="645" y="2027.52" width="89.75" height="85.48" as="geometry" />
        </mxCell>
        <mxCell id="P07iO-ze8JZMlhhvMRNp-76" value="6. Delete Replica" style="text;html=1;align=center;verticalAlign=middle;resizable=0;points=[];autosize=1;strokeColor=none;fillColor=default;" parent="1" vertex="1">
          <mxGeometry x="521" y="2016" width="109" height="26" as="geometry" />
        </mxCell>
        <mxCell id="P07iO-ze8JZMlhhvMRNp-77" value="" style="ellipse;whiteSpace=wrap;html=1;aspect=fixed;" parent="1" vertex="1">
          <mxGeometry x="263.63" y="2403" width="283" height="283" as="geometry" />
        </mxCell>
        <mxCell id="P07iO-ze8JZMlhhvMRNp-78" value="&lt;b&gt;&lt;font style=&quot;font-size: 15px;&quot;&gt;0&lt;/font&gt;&lt;/b&gt;" style="whiteSpace=wrap;html=1;aspect=fixed;fillColor=#dae8fc;strokeColor=#6c8ebf;" parent="1" vertex="1">
          <mxGeometry x="383.63" y="2386" width="32" height="32" as="geometry" />
        </mxCell>
        <mxCell id="P07iO-ze8JZMlhhvMRNp-115" style="edgeStyle=orthogonalEdgeStyle;rounded=0;orthogonalLoop=1;jettySize=auto;html=1;entryX=1;entryY=0.5;entryDx=0;entryDy=0;exitX=0.5;exitY=1;exitDx=0;exitDy=0;curved=1;" parent="1" source="P07iO-ze8JZMlhhvMRNp-80" target="P07iO-ze8JZMlhhvMRNp-113" edge="1">
          <mxGeometry relative="1" as="geometry" />
        </mxCell>
        <mxCell id="P07iO-ze8JZMlhhvMRNp-80" value="&lt;b&gt;&lt;font style=&quot;font-size: 15px;&quot;&gt;3&lt;/font&gt;&lt;/b&gt;" style="whiteSpace=wrap;html=1;aspect=fixed;fillColor=#fff2cc;strokeColor=#d6b656;" parent="1" vertex="1">
          <mxGeometry x="383.63" y="2670" width="32" height="32" as="geometry" />
        </mxCell>
        <mxCell id="P07iO-ze8JZMlhhvMRNp-81" value="&lt;b&gt;&lt;font style=&quot;font-size: 15px;&quot;&gt;1&lt;/font&gt;&lt;/b&gt;" style="whiteSpace=wrap;html=1;aspect=fixed;fillColor=#dae8fc;strokeColor=#6c8ebf;" parent="1" vertex="1">
          <mxGeometry x="535" y="2536" width="32" height="32" as="geometry" />
        </mxCell>
        <mxCell id="P07iO-ze8JZMlhhvMRNp-82" value="&lt;b&gt;&lt;font style=&quot;font-size: 15px;&quot;&gt;2&lt;/font&gt;&lt;/b&gt;" style="whiteSpace=wrap;html=1;aspect=fixed;fillColor=#dae8fc;strokeColor=#6c8ebf;" parent="1" vertex="1">
          <mxGeometry x="247.13" y="2536" width="32" height="32" as="geometry" />
        </mxCell>
        <mxCell id="P07iO-ze8JZMlhhvMRNp-97" value="" style="aspect=fixed;sketch=0;html=1;dashed=0;whitespace=wrap;fillColor=#2875E2;strokeColor=#ffffff;points=[[0.005,0.63,0],[0.1,0.2,0],[0.9,0.2,0],[0.5,0,0],[0.995,0.63,0],[0.72,0.99,0],[0.5,1,0],[0.28,0.99,0]];shape=mxgraph.kubernetes.icon2;prIcon=api" parent="1" vertex="1">
          <mxGeometry x="655.63" y="2587" width="50" height="48" as="geometry" />
        </mxCell>
        <mxCell id="P07iO-ze8JZMlhhvMRNp-98" value="Kubernetes" style="sketch=0;html=1;verticalAlign=top;labelPosition=center;verticalLabelPosition=bottom;align=center;spacingTop=-6;fontSize=11;fontStyle=1;fontColor=#999999;shape=image;aspect=fixed;imageAspect=0;image=data:image/svg+xml,PHN2ZyB4bWxucz0iaHR0cDovL3d3dy53My5vcmcvMjAwMC9zdmciIHhtbG5zOnY9Imh0dHBzOi8vdmVjdGEuaW8vbmFubyIgd2lkdGg9IjcwMi44NDYzMTM0NzY1NjI1IiBoZWlnaHQ9IjY4MS45NjcxMDIwNTA3ODEyIiB2aWV3Qm94PSIxMC4wMDEwMjYxNTM1NjQ0NTMgMTAuMDAwOTMzNjQ3MTU1NzYyIDcwMi44NDYzMTM0NzY1NjI1IDY4MS45NjcxMDIwNTA3ODEyIj4mI3hhOwk8c3R5bGUgdHlwZT0idGV4dC9jc3MiPiYjeGE7CS5zdDB7ZmlsbDojMzI2Y2U1O30mI3hhOwkuc3Qxe2ZpbGw6I2ZmZjt9JiN4YTsJPC9zdHlsZT4mI3hhOwk8cGF0aCBjbGFzcz0ic3QwIiBkPSJNMzU4Ljk4NyAxMC4wNmMtNi4yMTMuMzEzLTEyLjMwMSAxLjg1NC0xNy45MDYgNC41MzFMOTYuNzM3IDEzMS4zNDJjLTEyLjgxMSA2LjExOC0yMi4xMTYgMTcuNjg5LTI1LjI4MSAzMS40MzhsLTYwLjI4MSAyNjIuMjVjLTIuODEyIDEyLjIwNy0uNTI0IDI1LjAyNCA2LjM0NCAzNS41MzFhNDYuMzUgNDYuMzUgMCAwIDAgMi42NTYgMy42ODhsMTY5LjEyNSAyMTAuMjgxYzguODY4IDExLjAyMiAyMi4zMTMgMTcuNDQgMzYuNTMxIDE3LjQzOGwyNzEuMjE5LS4wNjJjMTQuMjEyLjAxIDI3LjY1Ny02LjM5NiAzNi41MzEtMTcuNDA2bDE2OS4wNjMtMjEwLjMxM2M4Ljg3My0xMS4wMjggMTIuMTk3LTI1LjQ2NCA5LjAzMS0zOS4yMTlsLTYwLjM3NS0yNjIuMjVjLTMuMTY1LTEzLjc0OC0xMi40Ny0yNS4zMTktMjUuMjgxLTMxLjQzN0wzODEuNjQzIDE0LjU5MmMtNy4wNS0zLjM2OC0xNC44NDEtNC45MjYtMjIuNjU2LTQuNTMxeiIvPiYjeGE7CTxwYXRoIGNsYXNzPSJzdDEgc3QyIiBkPSJNMzYxLjQwOCA5OS4zMDhjLTguMDc3LjAwMS0xNC42MjYgNy4yNzYtMTQuNjI1IDE2LjI1IDAgLjEzOC4wMjguMjY5LjAzMS40MDYtLjAxMiAxLjIxOS0uMDcxIDIuNjg4LS4wMzEgMy43NS4xOTMgNS4xNzYgMS4zMjEgOS4xMzcgMiAxMy45MDYgMS4yMyAxMC4yMDcgMi4yNjEgMTguNjY3IDEuNjI1IDI2LjUzMS0uNjE5IDIuOTY1LTIuODAzIDUuNjc3LTQuNzUgNy41NjNsLS4zNDQgNi4xODhjLTguNzc3LjcyNy0xNy42MTIgMi4wNTktMjYuNDM3IDQuMDYzLTM3Ljk3NSA4LjYyMi03MC42NyAyOC4xODMtOTUuNTYyIDU0LjU5NC0xLjYxNS0xLjEwMi00LjQ0MS0zLjEyOS01LjI4MS0zLjc1LTIuNjExLjM1My01LjI1IDEuMTU4LTguNjg3LS44NDQtNi41NDUtNC40MDYtMTIuNTA2LTEwLjQ4Ny0xOS43MTktMTcuODEyLTMuMzA1LTMuNTA0LTUuNjk4LTYuODQxLTkuNjI1LTEwLjIxOS0uODkyLS43NjctMi4yNTMtMS44MDUtMy4yNS0yLjU5NC0zLjA3LTIuNDQ4LTYuNjkxLTMuNzI0LTEwLjE4Ny0zLjg0NC00LjQ5Ni0uMTU0LTguODI0IDEuNjA0LTExLjY1NiA1LjE1Ni01LjAzNSA2LjMxNS0zLjQyMyAxNS45NjggMy41OTQgMjEuNTYzLjA3MS4wNTcuMTQ3LjEwMS4yMTkuMTU2Ljk2NC43ODIgMi4xNDUgMS43ODMgMy4wMzEgMi40MzggNC4xNjcgMy4wNzcgNy45NzMgNC42NTEgMTIuMTI1IDcuMDk0IDguNzQ3IDUuNDAyIDE1Ljk5OCA5Ljg4MSAyMS43NSAxNS4yODEgMi4yNDYgMi4zOTQgMi42MzkgNi42MTMgMi45MzggOC40MzhsNC42ODggNC4xODhjLTI1LjA5MyAzNy43NjQtMzYuNzA3IDg0LjQwOS0yOS44NDQgMTMxLjkzOGwtNi4xMjUgMS43ODFjLTEuNjE0IDIuMDg1LTMuODk1IDUuMzY1LTYuMjgxIDYuMzQ0LTcuNTI1IDIuMzctMTUuOTk0IDMuMjQxLTI2LjIxOSA0LjMxMy00LjguMzk5LTguOTQyLjE2MS0xNC4wMzEgMS4xMjUtMS4xMi4yMTItMi42ODEuNjE5LTMuOTA2LjkwNi0uMDQzLjAwOS0uMDgyLjAyMi0uMTI1LjAzMS0uMDY3LjAxNS0uMTU1LjA0OC0uMjE5LjA2My04LjYyIDIuMDgzLTE0LjE1OCAxMC4wMDYtMTIuMzc1IDE3LjgxM3MxMC4yMDMgMTIuNTU3IDE4Ljg3NSAxMC42ODhjLjA2My0uMDE0LjE1NC0uMDE3LjIxOS0uMDMxLjA5OC0uMDIyLjE4NC0uMDcuMjgxLS4wOTQgMS4yMDktLjI2NSAyLjcyNC0uNTYxIDMuNzgxLS44NDQgNS4wMDMtMS4zNCA4LjYyNy0zLjMwOCAxMy4xMjUtNS4wMzEgOS42NzctMy40NzEgMTcuNjkyLTYuMzcgMjUuNS03LjUgMy4yNjEtLjI1NSA2LjY5NyAyLjAxMiA4LjQwNiAyLjk2OWw2LjM3NS0xLjA5NGMxNC42NyA0NS40ODMgNDUuNDE0IDgyLjI0NSA4NC4zNDQgMTA1LjMxMmwtMi42NTYgNi4zNzVjLjk1NyAyLjQ3NSAyLjAxMyA1LjgyNSAxLjMgOC4yNjktMi44MzkgNy4zNjEtNy43MDEgMTUuMTMxLTEzLjIzOCAyMy43OTMtMi42ODEgNC4wMDItNS40MjUgNy4xMDgtNy44NDQgMTEuNjg4LS41NzkgMS4wOTYtMS4zMTYgMi43NzktMS44NzUgMy45MzgtMy43NTkgOC4wNDItMS4wMDIgMTcuMzA1IDYuMjE5IDIwLjc4MSA3LjI2NiAzLjQ5OCAxNi4yODQtLjE5MSAyMC4xODctOC4yNS4wMDYtLjAxMS4wMjYtLjAyLjAzMS0uMDMxcy0uMDA0LS4wMjMgMC0uMDMxYy41NTYtMS4xNDMgMS4zNDQtMi42NDQgMS44MTMtMy43MTkgMi4wNzItNC43NDcgMi43NjItOC44MTUgNC4yMTktMTMuNDA2IDMuODctOS43MiA1Ljk5Ni0xOS45MTkgMTEuMzIzLTI2LjI3NCAxLjQ1OS0xLjc0IDMuODM3LTIuNDA5IDYuMzAyLTMuMDdsMy4zMTMtNmMzMy45MzggMTMuMDI3IDcxLjkyNyAxNi41MjIgMTA5Ljg3NSA3LjkwNmExODkuNzcgMTg5Ljc3IDAgMCAwIDI1LjA5NC03LjU2MmwzLjEyNSA1LjYyNWMyLjUwNi44MTUgNS4yNCAxLjIzNiA3LjQ2OSA0LjUzMSAzLjk4NSA2LjgwOSA2LjcxMSAxNC44NjQgMTAuMDMxIDI0LjU5NCAxLjQ1NyA0LjU5MSAyLjE3OCA4LjY1OSA0LjI1IDEzLjQwNi40NzIgMS4wODIgMS4yNTYgMi42MDUgMS44MTMgMy43NSAzLjg5NSA4LjA4NSAxMi45NDIgMTEuNzg3IDIwLjIxOSA4LjI4MSA3LjIxOS0zLjQ3OCA5Ljk4LTEyLjc0IDYuMjE5LTIwLjc4MWwtMS45MDYtMy45MzdjLTIuNDE5LTQuNTgtNS4xNjMtNy42NTQtNy44NDQtMTEuNjU2LTUuNTM3LTguNjYyLTEwLjEzLTE1Ljg1OC0xMi45NjktMjMuMjE5LTEuMTg3LTMuNzk3LjItNi4xNTggMS4xMjUtOC42MjUtLjU1NC0uNjM1LTEuNzM5LTQuMjItMi40MzctNS45MDYgNDAuNDU3LTIzLjg4OCA3MC4yOTktNjIuMDIxIDg0LjMxMy0xMDYuMDYyIDEuODkyLjI5NyA1LjE4Mi44NzkgNi4yNSAxLjA5NCAyLjItMS40NTEgNC4yMjItMy4zNDQgOC4xODgtMy4wMzEgNy44MDggMS4xMjkgMTUuODIzIDQuMDMgMjUuNSA3LjUgNC40OTggMS43MjMgOC4xMjIgMy43MjMgMTMuMTI1IDUuMDYzIDEuMDU3LjI4MyAyLjU3Mi41NDcgMy43ODEuODEzLjA5Ny4wMjQuMTgzLjA3MS4yODEuMDk0LjA2NS4wMTUuMTU2LjAxNy4yMTkuMDMxIDguNjcyIDEuODY3IDE3LjA5NC0yLjg3OSAxOC44NzUtMTAuNjg3cy0zLjc1NC0xNS43MzItMTIuMzc1LTE3LjgxMmMtMS4yNTQtLjI4NS0zLjAzMi0uNzY5LTQuMjUtMS01LjA4OS0uOTY0LTkuMjMxLS43MjYtMTQuMDMxLTEuMTI1LTEwLjIyNS0xLjA3MS0xOC42OTMtMS45NDMtMjYuMjE5LTQuMzEyLTMuMDY4LTEuMTktNS4yNTEtNC44NDEtNi4zMTMtNi4zNDRsLTUuOTA2LTEuNzE5YzMuMDYyLTIyLjE1NCAyLjIzNy00NS4yMTEtMy4wNjItNjguMjgxLTUuMzQ4LTIzLjI4NS0xNC44LTQ0LjU4MS0yNy40MDYtNjMuMzQ0bDUuMTg4LTQuNjU2Yy4yMzctMi42MjQuMDMzLTUuMzc2IDIuNzUtOC4yODEgNS43NTEtNS40MDEgMTMuMDAzLTkuODc5IDIxLjc1LTE1LjI4MSA0LjE1Mi0yLjQ0MyA3Ljk5LTQuMDE3IDEyLjE1Ni03LjA5NC45NDItLjY5NiAyLjIyOS0xLjc5OCAzLjIxOS0yLjU5NCA3LjAxNS01LjU5NiA4LjYzMS0xNS4yNDggMy41OTQtMjEuNTYycy0xNC43OTctNi45MDktMjEuODEyLTEuMzEyYy0uOTk5Ljc5MS0yLjM1NCAxLjgyMy0zLjI1IDIuNTk0LTMuOTI3IDMuMzc4LTYuMzUxIDYuNzE0LTkuNjU2IDEwLjIxOS03LjIxMiA3LjMyNi0xMy4xNzQgMTMuNDM4LTE5LjcxOSAxNy44NDQtMi44MzYgMS42NTEtNi45OSAxLjA4LTguODc1Ljk2OWwtNS41NjIgMy45NjljLTMxLjcxOS0zMy4yNjEtNzQuOTA1LTU0LjUyNS0xMjEuNDA2LTU4LjY1NmwtLjM0NC02LjUzMWMtMS45MDQtMS44MjItNC4yMDMtMy4zNzctNC43ODEtNy4zMTItLjYzNi03Ljg2NC40MjYtMTYuMzI1IDEuNjU2LTI2LjUzMS42NzktNC43NjkgMS44MDctOC43MyAyLTEzLjkwNi4wNDQtMS4xNzctLjAyNi0yLjg4NC0uMDMxLTQuMTU2LS4wMDEtOC45NzQtNi41NDgtMTYuMjUxLTE0LjYyNS0xNi4yNXptLTE4LjMxMiAxMTMuNDM4bC00LjM0NCA3Ni43MTktLjMxMi4xNTZjLS4yOTEgNi44NjMtNS45NCAxMi4zNDQtMTIuODc1IDEyLjM0NGExMi44MiAxMi44MiAwIDAgMS03LjU5NC0yLjQ2OWwtLjEyNS4wNjMtNjIuOTA2LTQ0LjU5NGMxOS4zMzQtMTkuMDExIDQ0LjA2My0zMy4wNiA3Mi41NjItMzkuNTMxIDUuMjA2LTEuMTgyIDEwLjQxLTIuMDU5IDE1LjU5NC0yLjY4N3ptMzYuNjU2IDBjMzMuMjczIDQuMDkyIDY0LjA0NSAxOS4xNTkgODcuNjI1IDQyLjI1bC02Mi41IDQ0LjMxMy0uMjE5LS4wOTRhMTIuOTEgMTIuOTEgMCAwIDEtMTcuNjg3LTIuMzc1Yy0xLjc3MS0yLjIyMS0yLjcwMS00LjgzMi0yLjgxMi03LjQ2OWwtLjA2Mi0uMDMxek0yMzIuMTI2IDI4My42Mmw1Ny40MzcgNTEuMzc1LS4wNjIuMzEzYTEyLjg4IDEyLjg4IDAgMCAxIDEuNjI1IDE3Ljc1IDEyLjg5IDEyLjg5IDAgMCAxLTYuNjg3IDQuNDA2bC0uMDYyLjI1LTczLjYyNSAyMS4yNWMtMy43NDctMzQuMjY1IDQuMzI5LTY3LjU3NCAyMS4zNzUtOTUuMzQ0em0yNTguMTU2LjAzMWM4LjUzNCAxMy44MzMgMTQuOTk3IDI5LjI4MiAxOC44NDQgNDYuMDMxIDMuODAxIDE2LjU0OCA0Ljc1NSAzMy4wNjcgMy4xODggNDkuMDMxbC03NC0yMS4zMTItLjA2Mi0uMzEyYy02LjYyNy0xLjgxMS0xMC42OTktOC41NTItOS4xNTYtMTUuMzEyLjYzMi0yLjc3IDIuMTAyLTUuMTEzIDQuMDk0LTYuODQ0bC0uMDMxLS4xNTYgNTcuMTI1LTUxLjEyNXptLTE0MC42NTYgNTUuMzEzaDIzLjUzMWwxNC42MjUgMTguMjgxLTUuMjUgMjIuODEzLTIxLjEyNSAxMC4xNTYtMjEuMTg3LTEwLjE4Ny01LjI1LTIyLjgxMnptNzUuNDM4IDYyLjU2M2ExMi44MyAxMi44MyAwIDAgMSAyLjk2OS4yMTlsLjEyNS0uMTU2IDc2LjE1NiAxMi44NzVjLTExLjE0NiAzMS4zMTMtMzIuNDczIDU4LjQ0LTYwLjk2OSA3Ni41OTRsLTI5LjU2Mi03MS40MDYuMDk0LS4xMjVjLTIuNzE2LTYuMzEuMDAyLTEzLjcxIDYuMjUtMTYuNzE5IDEuNi0uNzcgMy4yNzEtMS4xOTcgNC45MzgtMS4yODF6bS0xMjcuOTA2LjMxM2ExMi45IDEyLjkgMCAwIDEgMTIuMzc1IDEwLjAzMSAxMi43NyAxMi43NyAwIDAgMS0uNzE5IDcuOTM4bC4yMTkuMjgxLTI5LjI1IDcwLjY4OGMtMjcuMzQ3LTE3LjU0OS00OS4xMjktNDMuODI0LTYwLjc4MS03Ni4wNjJsNzUuNS0xMi44MTIuMTI1LjE1NmMuODQ1LS4xNTUgMS43MDEtLjIzIDIuNTMxLS4yMTl6bTYzLjc4MSAzMC45NjljMi4wMjQtLjA3NCA0LjA3OS4zNDEgNi4wMzEgMS4yODEgMi41NiAxLjIzMyA0LjUzNyAzLjE3MyA1Ljc4MSA1LjVoLjI4MWwzNy4yMTkgNjcuMjVjLTQuODMgMS42MTktOS43OTYgMy4wMDMtMTQuODc1IDQuMTU2LTI4LjQ2NSA2LjQ2My01Ni44MzkgNC41MDUtODIuNTMxLTQuMjVsMzcuMTI1LTY3LjEyNWguMDYzYTEyLjkxIDEyLjkxIDAgMCAxIDEwLjkwNi02LjgxMnoiIHN0cm9rZT0ibm9uZSIgc3Ryb2tlLXdpZHRoPSIuMjUiLz4mI3hhOzwvc3ZnPg==;" parent="1" vertex="1">
          <mxGeometry x="670.63" y="2637.52" width="89.75" height="85.48" as="geometry" />
        </mxCell>
        <mxCell id="P07iO-ze8JZMlhhvMRNp-100" value="" style="ellipse;whiteSpace=wrap;html=1;aspect=fixed;" parent="1" vertex="1">
          <mxGeometry x="263.63" y="2579" width="17" height="17" as="geometry" />
        </mxCell>
        <mxCell id="P07iO-ze8JZMlhhvMRNp-101" value="" style="ellipse;whiteSpace=wrap;html=1;aspect=fixed;" parent="1" vertex="1">
          <mxGeometry x="274" y="2607" width="17" height="17" as="geometry" />
        </mxCell>
        <mxCell id="P07iO-ze8JZMlhhvMRNp-102" value="" style="ellipse;whiteSpace=wrap;html=1;aspect=fixed;" parent="1" vertex="1">
          <mxGeometry x="314" y="2653" width="17" height="17" as="geometry" />
        </mxCell>
        <mxCell id="P07iO-ze8JZMlhhvMRNp-103" value="" style="ellipse;whiteSpace=wrap;html=1;aspect=fixed;" parent="1" vertex="1">
          <mxGeometry x="334" y="2663" width="17" height="17" as="geometry" />
        </mxCell>
        <mxCell id="P07iO-ze8JZMlhhvMRNp-104" value="" style="ellipse;whiteSpace=wrap;html=1;aspect=fixed;" parent="1" vertex="1">
          <mxGeometry x="358" y="2671.76" width="17" height="17" as="geometry" />
        </mxCell>
        <mxCell id="P07iO-ze8JZMlhhvMRNp-106" value="" style="ellipse;whiteSpace=wrap;html=1;aspect=fixed;" parent="1" vertex="1">
          <mxGeometry x="263.63" y="2488" width="17" height="17" as="geometry" />
        </mxCell>
        <mxCell id="P07iO-ze8JZMlhhvMRNp-107" value="" style="ellipse;whiteSpace=wrap;html=1;aspect=fixed;" parent="1" vertex="1">
          <mxGeometry x="331" y="2411" width="17" height="17" as="geometry" />
        </mxCell>
        <mxCell id="P07iO-ze8JZMlhhvMRNp-108" value="" style="ellipse;whiteSpace=wrap;html=1;aspect=fixed;" parent="1" vertex="1">
          <mxGeometry x="484" y="2424" width="17" height="17" as="geometry" />
        </mxCell>
        <mxCell id="P07iO-ze8JZMlhhvMRNp-109" value="" style="ellipse;whiteSpace=wrap;html=1;aspect=fixed;" parent="1" vertex="1">
          <mxGeometry x="526" y="2476" width="17" height="17" as="geometry" />
        </mxCell>
        <mxCell id="P07iO-ze8JZMlhhvMRNp-110" value="" style="ellipse;whiteSpace=wrap;html=1;aspect=fixed;" parent="1" vertex="1">
          <mxGeometry x="526" y="2596" width="17" height="17" as="geometry" />
        </mxCell>
        <mxCell id="P07iO-ze8JZMlhhvMRNp-111" value="" style="ellipse;whiteSpace=wrap;html=1;aspect=fixed;" parent="1" vertex="1">
          <mxGeometry x="465" y="2659" width="17" height="17" as="geometry" />
        </mxCell>
        <mxCell id="P07iO-ze8JZMlhhvMRNp-112" value="1. Overloaded node" style="text;html=1;align=center;verticalAlign=middle;resizable=0;points=[];autosize=1;strokeColor=none;fillColor=none;" parent="1" vertex="1">
          <mxGeometry x="363.58" y="2635" width="123" height="26" as="geometry" />
        </mxCell>
        <mxCell id="P07iO-ze8JZMlhhvMRNp-119" style="edgeStyle=orthogonalEdgeStyle;rounded=0;orthogonalLoop=1;jettySize=auto;html=1;entryX=0;entryY=0.5;entryDx=0;entryDy=0;curved=1;exitX=0.5;exitY=0;exitDx=0;exitDy=0;dashed=1;" parent="1" source="P07iO-ze8JZMlhhvMRNp-113" target="P07iO-ze8JZMlhhvMRNp-118" edge="1">
          <mxGeometry relative="1" as="geometry" />
        </mxCell>
        <mxCell id="P07iO-ze8JZMlhhvMRNp-113" value="&lt;b&gt;&lt;font style=&quot;font-size: 15px;&quot;&gt;5&lt;/font&gt;&lt;/b&gt;" style="whiteSpace=wrap;html=1;aspect=fixed;fillColor=#dae8fc;strokeColor=#6c8ebf;" parent="1" vertex="1">
          <mxGeometry x="215.13" y="2719" width="32" height="32" as="geometry" />
        </mxCell>
        <mxCell id="P07iO-ze8JZMlhhvMRNp-116" value="2. Move half the data to new node" style="text;html=1;align=center;verticalAlign=middle;resizable=0;points=[];autosize=1;strokeColor=none;fillColor=default;" parent="1" vertex="1">
          <mxGeometry x="313" y="2727" width="199" height="26" as="geometry" />
        </mxCell>
        <mxCell id="P07iO-ze8JZMlhhvMRNp-118" value="&lt;b&gt;&lt;font style=&quot;font-size: 15px;&quot;&gt;5&lt;/font&gt;&lt;/b&gt;" style="whiteSpace=wrap;html=1;aspect=fixed;fillColor=#dae8fc;strokeColor=#6c8ebf;dashed=1;" parent="1" vertex="1">
          <mxGeometry x="273" y="2635" width="32" height="32" as="geometry" />
        </mxCell>
        <mxCell id="P07iO-ze8JZMlhhvMRNp-120" value="3. Place node in ring" style="text;html=1;align=center;verticalAlign=middle;resizable=0;points=[];autosize=1;strokeColor=none;fillColor=default;" parent="1" vertex="1">
          <mxGeometry x="128.5" y="2667" width="127" height="26" as="geometry" />
        </mxCell>
        <mxCell id="P07iO-ze8JZMlhhvMRNp-127" style="edgeStyle=orthogonalEdgeStyle;rounded=0;orthogonalLoop=1;jettySize=auto;html=1;entryX=0;entryY=0.5;entryDx=0;entryDy=0;curved=1;" parent="1" source="P07iO-ze8JZMlhhvMRNp-121" target="P07iO-ze8JZMlhhvMRNp-82" edge="1">
          <mxGeometry relative="1" as="geometry" />
        </mxCell>
        <mxCell id="P07iO-ze8JZMlhhvMRNp-121" value="&lt;b&gt;&lt;font style=&quot;font-size: 15px;&quot;&gt;4&lt;/font&gt;&lt;/b&gt;" style="whiteSpace=wrap;html=1;aspect=fixed;fillColor=#f8cecc;strokeColor=#b85450;dashed=1;" parent="1" vertex="1">
          <mxGeometry x="283" y="2435" width="32" height="32" as="geometry" />
        </mxCell>
        <mxCell id="P07iO-ze8JZMlhhvMRNp-125" value="1. Underloaded node" style="text;html=1;align=center;verticalAlign=middle;resizable=0;points=[];autosize=1;strokeColor=none;fillColor=none;" parent="1" vertex="1">
          <mxGeometry x="316.58" y="2438" width="130" height="26" as="geometry" />
        </mxCell>
        <mxCell id="P07iO-ze8JZMlhhvMRNp-128" value="2. Move data to previous node" style="text;html=1;align=center;verticalAlign=middle;resizable=0;points=[];autosize=1;strokeColor=none;fillColor=default;" parent="1" vertex="1">
          <mxGeometry x="72" y="2483.5" width="179" height="26" as="geometry" />
        </mxCell>
        <mxCell id="P07iO-ze8JZMlhhvMRNp-129" value="&lt;b&gt;&lt;font style=&quot;font-size: 15px;&quot;&gt;4&lt;/font&gt;&lt;/b&gt;" style="whiteSpace=wrap;html=1;aspect=fixed;fillColor=#f8cecc;strokeColor=#b85450;" parent="1" vertex="1">
          <mxGeometry x="238.57999999999998" y="2403.5" width="32" height="32" as="geometry" />
        </mxCell>
        <mxCell id="P07iO-ze8JZMlhhvMRNp-130" value="3. Free Node-4" style="text;html=1;align=center;verticalAlign=middle;resizable=0;points=[];autosize=1;strokeColor=none;fillColor=none;" parent="1" vertex="1">
          <mxGeometry x="175.58" y="2377" width="99" height="26" as="geometry" />
        </mxCell>
        <mxCell id="YlIWQOpzAyxYIMlJn0f8-15" value="Copy Data" style="text;html=1;align=center;verticalAlign=middle;resizable=0;points=[];autosize=1;strokeColor=none;fillColor=none;" vertex="1" parent="1">
          <mxGeometry x="365.5" y="3071.5" width="75" height="26" as="geometry" />
        </mxCell>
        <mxCell id="YlIWQOpzAyxYIMlJn0f8-27" value="" style="endArrow=classic;html=1;rounded=0;" edge="1" parent="1">
          <mxGeometry width="50" height="50" relative="1" as="geometry">
            <mxPoint x="229.93" y="2967" as="sourcePoint" />
            <mxPoint x="229.93" y="3022" as="targetPoint" />
          </mxGeometry>
        </mxCell>
        <mxCell id="YlIWQOpzAyxYIMlJn0f8-28" value="&lt;font size=&quot;1&quot;&gt;Put&lt;/font&gt;" style="text;html=1;align=center;verticalAlign=middle;resizable=0;points=[];autosize=1;strokeColor=none;fillColor=none;" vertex="1" parent="1">
          <mxGeometry x="211.93" y="2942" width="33" height="26" as="geometry" />
        </mxCell>
        <mxCell id="YlIWQOpzAyxYIMlJn0f8-29" value="" style="endArrow=none;html=1;rounded=0;startArrow=classic;startFill=1;endFill=0;" edge="1" parent="1">
          <mxGeometry width="50" height="50" relative="1" as="geometry">
            <mxPoint x="270.93" y="2967" as="sourcePoint" />
            <mxPoint x="270.93" y="3022" as="targetPoint" />
          </mxGeometry>
        </mxCell>
        <mxCell id="YlIWQOpzAyxYIMlJn0f8-30" value="&lt;font size=&quot;1&quot;&gt;Get&lt;/font&gt;" style="text;html=1;align=center;verticalAlign=middle;resizable=0;points=[];autosize=1;strokeColor=none;fillColor=none;" vertex="1" parent="1">
          <mxGeometry x="252.93" y="2942" width="34" height="26" as="geometry" />
        </mxCell>
        <mxCell id="YlIWQOpzAyxYIMlJn0f8-31" value="" style="endArrow=classic;html=1;rounded=0;" edge="1" parent="1">
          <mxGeometry width="50" height="50" relative="1" as="geometry">
            <mxPoint x="538" y="2967" as="sourcePoint" />
            <mxPoint x="538" y="3022" as="targetPoint" />
          </mxGeometry>
        </mxCell>
        <mxCell id="YlIWQOpzAyxYIMlJn0f8-32" value="&lt;font size=&quot;1&quot;&gt;Put&lt;/font&gt;" style="text;html=1;align=center;verticalAlign=middle;resizable=0;points=[];autosize=1;strokeColor=none;fillColor=none;" vertex="1" parent="1">
          <mxGeometry x="520" y="2942" width="33" height="26" as="geometry" />
        </mxCell>
        <mxCell id="YlIWQOpzAyxYIMlJn0f8-33" value="" style="endArrow=none;html=1;rounded=0;startArrow=classic;startFill=1;endFill=0;" edge="1" parent="1">
          <mxGeometry width="50" height="50" relative="1" as="geometry">
            <mxPoint x="579" y="2967" as="sourcePoint" />
            <mxPoint x="579" y="3022" as="targetPoint" />
          </mxGeometry>
        </mxCell>
        <mxCell id="YlIWQOpzAyxYIMlJn0f8-34" value="&lt;font size=&quot;1&quot;&gt;Get&lt;/font&gt;" style="text;html=1;align=center;verticalAlign=middle;resizable=0;points=[];autosize=1;strokeColor=none;fillColor=none;" vertex="1" parent="1">
          <mxGeometry x="561" y="2942" width="34" height="26" as="geometry" />
        </mxCell>
        <mxCell id="YlIWQOpzAyxYIMlJn0f8-6" value="Node Set 1" style="text;align=center;verticalAlign=middle;resizable=0;points=[];autosize=1;strokeColor=none;fillColor=none;html=1;horizontal=1;fontSize=15;" vertex="1" parent="1">
          <mxGeometry x="202.5" y="3245" width="93" height="30" as="geometry" />
        </mxCell>
        <mxCell id="YlIWQOpzAyxYIMlJn0f8-71" value="" style="group" vertex="1" connectable="0" parent="1">
          <mxGeometry x="176" y="3049" width="126" height="126" as="geometry" />
        </mxCell>
        <mxCell id="YlIWQOpzAyxYIMlJn0f8-1" value="" style="whiteSpace=wrap;html=1;aspect=fixed;fillColor=#dae8fc;strokeColor=#6c8ebf;" vertex="1" parent="YlIWQOpzAyxYIMlJn0f8-71">
          <mxGeometry width="126" height="126" as="geometry" />
        </mxCell>
        <mxCell id="YlIWQOpzAyxYIMlJn0f8-2" value="" style="shape=cylinder3;whiteSpace=wrap;html=1;boundedLbl=1;backgroundOutline=1;size=15;" vertex="1" parent="YlIWQOpzAyxYIMlJn0f8-71">
          <mxGeometry x="30.41999999999996" y="7" width="60" height="80" as="geometry" />
        </mxCell>
        <mxCell id="YlIWQOpzAyxYIMlJn0f8-5" value="LRU Cache" style="text;html=1;align=center;verticalAlign=middle;resizable=0;points=[];autosize=1;strokeColor=none;fillColor=none;" vertex="1" parent="YlIWQOpzAyxYIMlJn0f8-71">
          <mxGeometry x="21.91999999999996" y="93" width="80" height="26" as="geometry" />
        </mxCell>
        <mxCell id="YlIWQOpzAyxYIMlJn0f8-18" value="Load" style="text;html=1;align=center;verticalAlign=middle;resizable=0;points=[];autosize=1;strokeColor=none;fillColor=none;" vertex="1" parent="YlIWQOpzAyxYIMlJn0f8-71">
          <mxGeometry x="37.920000000000016" y="52" width="45" height="26" as="geometry" />
        </mxCell>
        <mxCell id="YlIWQOpzAyxYIMlJn0f8-17" value="" style="endArrow=none;html=1;rounded=0;entryX=0;entryY=0.5;entryDx=0;entryDy=0;entryPerimeter=0;edgeStyle=orthogonalEdgeStyle;curved=1;" edge="1" parent="YlIWQOpzAyxYIMlJn0f8-71">
          <mxGeometry width="50" height="50" relative="1" as="geometry">
            <mxPoint x="90.5" y="39" as="sourcePoint" />
            <mxPoint x="30.41999999999996" y="39" as="targetPoint" />
            <Array as="points">
              <mxPoint x="90.5" y="40" />
              <mxPoint x="74.5" y="40" />
              <mxPoint x="74.5" y="49" />
              <mxPoint x="47.5" y="49" />
              <mxPoint x="47.5" y="39" />
            </Array>
          </mxGeometry>
        </mxCell>
        <mxCell id="YlIWQOpzAyxYIMlJn0f8-72" value="" style="group" vertex="1" connectable="0" parent="1">
          <mxGeometry x="186" y="3059" width="126" height="126" as="geometry" />
        </mxCell>
        <mxCell id="YlIWQOpzAyxYIMlJn0f8-73" value="" style="whiteSpace=wrap;html=1;aspect=fixed;fillColor=#dae8fc;strokeColor=#6c8ebf;" vertex="1" parent="YlIWQOpzAyxYIMlJn0f8-72">
          <mxGeometry width="126" height="126" as="geometry" />
        </mxCell>
        <mxCell id="YlIWQOpzAyxYIMlJn0f8-74" value="" style="shape=cylinder3;whiteSpace=wrap;html=1;boundedLbl=1;backgroundOutline=1;size=15;" vertex="1" parent="YlIWQOpzAyxYIMlJn0f8-72">
          <mxGeometry x="30.41999999999996" y="7" width="60" height="80" as="geometry" />
        </mxCell>
        <mxCell id="YlIWQOpzAyxYIMlJn0f8-75" value="LRU Cache" style="text;html=1;align=center;verticalAlign=middle;resizable=0;points=[];autosize=1;strokeColor=none;fillColor=none;" vertex="1" parent="YlIWQOpzAyxYIMlJn0f8-72">
          <mxGeometry x="21.91999999999996" y="93" width="80" height="26" as="geometry" />
        </mxCell>
        <mxCell id="YlIWQOpzAyxYIMlJn0f8-76" value="Load" style="text;html=1;align=center;verticalAlign=middle;resizable=0;points=[];autosize=1;strokeColor=none;fillColor=none;" vertex="1" parent="YlIWQOpzAyxYIMlJn0f8-72">
          <mxGeometry x="37.920000000000016" y="52" width="45" height="26" as="geometry" />
        </mxCell>
        <mxCell id="YlIWQOpzAyxYIMlJn0f8-77" value="" style="endArrow=none;html=1;rounded=0;entryX=0;entryY=0.5;entryDx=0;entryDy=0;entryPerimeter=0;edgeStyle=orthogonalEdgeStyle;curved=1;" edge="1" parent="YlIWQOpzAyxYIMlJn0f8-72">
          <mxGeometry width="50" height="50" relative="1" as="geometry">
            <mxPoint x="90.5" y="39" as="sourcePoint" />
            <mxPoint x="30.41999999999996" y="39" as="targetPoint" />
            <Array as="points">
              <mxPoint x="90.5" y="40" />
              <mxPoint x="74.5" y="40" />
              <mxPoint x="74.5" y="49" />
              <mxPoint x="47.5" y="49" />
              <mxPoint x="47.5" y="39" />
            </Array>
          </mxGeometry>
        </mxCell>
        <mxCell id="YlIWQOpzAyxYIMlJn0f8-78" value="" style="group" vertex="1" connectable="0" parent="1">
          <mxGeometry x="196" y="3069" width="126" height="126" as="geometry" />
        </mxCell>
        <mxCell id="YlIWQOpzAyxYIMlJn0f8-79" value="" style="whiteSpace=wrap;html=1;aspect=fixed;fillColor=#dae8fc;strokeColor=#6c8ebf;" vertex="1" parent="YlIWQOpzAyxYIMlJn0f8-78">
          <mxGeometry width="126" height="126" as="geometry" />
        </mxCell>
        <mxCell id="YlIWQOpzAyxYIMlJn0f8-80" value="" style="shape=cylinder3;whiteSpace=wrap;html=1;boundedLbl=1;backgroundOutline=1;size=15;" vertex="1" parent="YlIWQOpzAyxYIMlJn0f8-78">
          <mxGeometry x="30.41999999999996" y="7" width="60" height="80" as="geometry" />
        </mxCell>
        <mxCell id="YlIWQOpzAyxYIMlJn0f8-81" value="LRU Cache" style="text;html=1;align=center;verticalAlign=middle;resizable=0;points=[];autosize=1;strokeColor=none;fillColor=none;" vertex="1" parent="YlIWQOpzAyxYIMlJn0f8-78">
          <mxGeometry x="21.91999999999996" y="93" width="80" height="26" as="geometry" />
        </mxCell>
        <mxCell id="YlIWQOpzAyxYIMlJn0f8-82" value="Load" style="text;html=1;align=center;verticalAlign=middle;resizable=0;points=[];autosize=1;strokeColor=none;fillColor=none;" vertex="1" parent="YlIWQOpzAyxYIMlJn0f8-78">
          <mxGeometry x="37.920000000000016" y="52" width="45" height="26" as="geometry" />
        </mxCell>
        <mxCell id="YlIWQOpzAyxYIMlJn0f8-83" value="" style="endArrow=none;html=1;rounded=0;entryX=0;entryY=0.5;entryDx=0;entryDy=0;entryPerimeter=0;edgeStyle=orthogonalEdgeStyle;curved=1;" edge="1" parent="YlIWQOpzAyxYIMlJn0f8-78">
          <mxGeometry width="50" height="50" relative="1" as="geometry">
            <mxPoint x="90.5" y="39" as="sourcePoint" />
            <mxPoint x="30.41999999999996" y="39" as="targetPoint" />
            <Array as="points">
              <mxPoint x="90.5" y="40" />
              <mxPoint x="74.5" y="40" />
              <mxPoint x="74.5" y="49" />
              <mxPoint x="47.5" y="49" />
              <mxPoint x="47.5" y="39" />
            </Array>
          </mxGeometry>
        </mxCell>
        <mxCell id="YlIWQOpzAyxYIMlJn0f8-87" value="Replica Nodes" style="text;html=1;align=center;verticalAlign=middle;resizable=0;points=[];autosize=1;strokeColor=none;fillColor=none;" vertex="1" parent="1">
          <mxGeometry x="198.43" y="3201" width="96" height="26" as="geometry" />
        </mxCell>
        <mxCell id="YlIWQOpzAyxYIMlJn0f8-7" value="" style="whiteSpace=wrap;html=1;aspect=fixed;fillColor=#dae8fc;strokeColor=#6c8ebf;" vertex="1" parent="1">
          <mxGeometry x="484.5" y="3051.5" width="126" height="126" as="geometry" />
        </mxCell>
        <mxCell id="YlIWQOpzAyxYIMlJn0f8-8" value="" style="shape=cylinder3;whiteSpace=wrap;html=1;boundedLbl=1;backgroundOutline=1;size=15;" vertex="1" parent="1">
          <mxGeometry x="514.92" y="3058.5" width="60" height="80" as="geometry" />
        </mxCell>
        <mxCell id="YlIWQOpzAyxYIMlJn0f8-9" value="LRU Cache" style="text;html=1;align=center;verticalAlign=middle;resizable=0;points=[];autosize=1;strokeColor=none;fillColor=none;" vertex="1" parent="1">
          <mxGeometry x="506.41999999999996" y="3144.5" width="80" height="26" as="geometry" />
        </mxCell>
        <mxCell id="YlIWQOpzAyxYIMlJn0f8-19" value="" style="endArrow=none;html=1;rounded=0;entryX=0;entryY=0.5;entryDx=0;entryDy=0;entryPerimeter=0;edgeStyle=orthogonalEdgeStyle;curved=1;" edge="1" parent="1">
          <mxGeometry width="50" height="50" relative="1" as="geometry">
            <mxPoint x="574.4200000000001" y="3118.5" as="sourcePoint" />
            <mxPoint x="514.4200000000001" y="3118.5" as="targetPoint" />
            <Array as="points">
              <mxPoint x="574.4200000000001" y="3119.5" />
              <mxPoint x="558.4200000000001" y="3119.5" />
              <mxPoint x="558.4200000000001" y="3128.5" />
              <mxPoint x="531.4200000000001" y="3128.5" />
              <mxPoint x="531.4200000000001" y="3118.5" />
            </Array>
          </mxGeometry>
        </mxCell>
        <mxCell id="YlIWQOpzAyxYIMlJn0f8-88" value="" style="whiteSpace=wrap;html=1;aspect=fixed;fillColor=#dae8fc;strokeColor=#6c8ebf;" vertex="1" parent="1">
          <mxGeometry x="494.5" y="3061.5" width="126" height="126" as="geometry" />
        </mxCell>
        <mxCell id="YlIWQOpzAyxYIMlJn0f8-89" value="" style="shape=cylinder3;whiteSpace=wrap;html=1;boundedLbl=1;backgroundOutline=1;size=15;" vertex="1" parent="1">
          <mxGeometry x="524.92" y="3068.5" width="60" height="80" as="geometry" />
        </mxCell>
        <mxCell id="YlIWQOpzAyxYIMlJn0f8-90" value="LRU Cache" style="text;html=1;align=center;verticalAlign=middle;resizable=0;points=[];autosize=1;strokeColor=none;fillColor=none;" vertex="1" parent="1">
          <mxGeometry x="516.42" y="3154.5" width="80" height="26" as="geometry" />
        </mxCell>
        <mxCell id="YlIWQOpzAyxYIMlJn0f8-91" value="" style="endArrow=none;html=1;rounded=0;entryX=0;entryY=0.5;entryDx=0;entryDy=0;entryPerimeter=0;edgeStyle=orthogonalEdgeStyle;curved=1;" edge="1" parent="1">
          <mxGeometry width="50" height="50" relative="1" as="geometry">
            <mxPoint x="584.4200000000001" y="3128.5" as="sourcePoint" />
            <mxPoint x="524.4200000000001" y="3128.5" as="targetPoint" />
            <Array as="points">
              <mxPoint x="584.4200000000001" y="3129.5" />
              <mxPoint x="568.4200000000001" y="3129.5" />
              <mxPoint x="568.4200000000001" y="3138.5" />
              <mxPoint x="541.4200000000001" y="3138.5" />
              <mxPoint x="541.4200000000001" y="3128.5" />
            </Array>
          </mxGeometry>
        </mxCell>
        <mxCell id="YlIWQOpzAyxYIMlJn0f8-92" value="" style="whiteSpace=wrap;html=1;aspect=fixed;fillColor=#dae8fc;strokeColor=#6c8ebf;" vertex="1" parent="1">
          <mxGeometry x="504.5" y="3071.5" width="126" height="126" as="geometry" />
        </mxCell>
        <mxCell id="YlIWQOpzAyxYIMlJn0f8-93" value="" style="shape=cylinder3;whiteSpace=wrap;html=1;boundedLbl=1;backgroundOutline=1;size=15;" vertex="1" parent="1">
          <mxGeometry x="534.92" y="3078.5" width="60" height="80" as="geometry" />
        </mxCell>
        <mxCell id="YlIWQOpzAyxYIMlJn0f8-94" value="LRU Cache" style="text;html=1;align=center;verticalAlign=middle;resizable=0;points=[];autosize=1;strokeColor=none;fillColor=none;" vertex="1" parent="1">
          <mxGeometry x="526.42" y="3164.5" width="80" height="26" as="geometry" />
        </mxCell>
        <mxCell id="YlIWQOpzAyxYIMlJn0f8-95" value="" style="endArrow=none;html=1;rounded=0;entryX=0;entryY=0.5;entryDx=0;entryDy=0;entryPerimeter=0;edgeStyle=orthogonalEdgeStyle;curved=1;" edge="1" parent="1">
          <mxGeometry width="50" height="50" relative="1" as="geometry">
            <mxPoint x="594.4200000000001" y="3138.5" as="sourcePoint" />
            <mxPoint x="534.4200000000001" y="3138.5" as="targetPoint" />
            <Array as="points">
              <mxPoint x="594.4200000000001" y="3139.5" />
              <mxPoint x="578.4200000000001" y="3139.5" />
              <mxPoint x="578.4200000000001" y="3148.5" />
              <mxPoint x="551.4200000000001" y="3148.5" />
              <mxPoint x="551.4200000000001" y="3138.5" />
            </Array>
          </mxGeometry>
        </mxCell>
        <mxCell id="YlIWQOpzAyxYIMlJn0f8-96" value="Replica Nodes" style="text;html=1;align=center;verticalAlign=middle;resizable=0;points=[];autosize=1;strokeColor=none;fillColor=none;" vertex="1" parent="1">
          <mxGeometry x="514.9200000000001" y="3201.5" width="96" height="26" as="geometry" />
        </mxCell>
        <mxCell id="YlIWQOpzAyxYIMlJn0f8-99" value="Node Set 2" style="text;align=center;verticalAlign=middle;resizable=0;points=[];autosize=1;strokeColor=none;fillColor=none;html=1;horizontal=1;fontSize=15;" vertex="1" parent="1">
          <mxGeometry x="511.58" y="3245" width="100" height="30" as="geometry" />
        </mxCell>
      </root>
    </mxGraphModel>
  </diagram>
</mxfile>
